<svg id="레이어_1" data-name="레이어 1" xmlns="http://www.w3.org/2000/svg" viewBox="0 0 512 512">
<path style="fill:rgb(100,100,100);fill-rule:nonzero;" d="M256,511.5A255.51,255.51,0,0,1,75.33,75.33,255.51,255.51,0,0,1,436.67,436.67,253.86,253.86,0,0,1,256,511.5ZM146.47,334.1a16,16,0,1,0,0,31.93H365.53a16,16,0,1,0,0-31.93Zm0-94.07a16,16,0,1,0,0,31.94H365.53a16,16,0,1,0,0-31.94Zm0-94.06a16,16,0,1,0,0,31.93H365.53a16,16,0,1,0,0-31.93Z"/>
<path style="fill:rgb(100,100,100);fill-rule:nonzero;" d="M256,1a255.07,255.07,0,0,1,99.26,490A255.07,255.07,0,0,1,156.74,21,253.35,253.35,0,0,1,256,1M146.47,178.4H365.53a16.47,16.47,0,1,0,0-32.93H146.47a16.47,16.47,0,1,0,0,32.93m0,94.07H365.53a16.47,16.47,0,1,0,0-32.94H146.47a16.47,16.47,0,1,0,0,32.94m0,94.06H365.53a16.47,16.47,0,1,0,0-32.93H146.47a16.47,16.47,0,1,0,0,32.93M256,0C114.62,0,0,114.62,0,256S114.62,512,256,512,512,397.38,512,256,397.38,0,256,0ZM146.47,177.4a15.47,15.47,0,1,1,0-30.93H365.53a15.47,15.47,0,1,1,0,30.93Zm0,94.07A15.47,15.47,0,0,1,131,256h0a15.47,15.47,0,0,1,15.47-15.47H365.53A15.47,15.47,0,0,1,381,256h0a15.47,15.47,0,0,1-15.47,15.47Zm0,94.06A15.46,15.46,0,0,1,131,350.07h0a15.47,15.47,0,0,1,15.47-15.47H365.53A15.47,15.47,0,0,1,381,350.07h0a15.46,15.46,0,0,1-15.47,15.46Z"/></svg>