<svg id="레이어_1" data-name="레이어 1" xmlns="http://www.w3.org/2000/svg" viewBox="0 0 512 512">
<defs>
<style>.cls-1{fill:rgb(100,100,100);fill-rule:nonzero;stroke:#000;stroke-miterlimit:10;}</style></defs><path class="cls-1" d="M256,0C114.62,0,0,114.62,0,256S114.62,512,256,512,512,397.38,512,256,397.38,0,256,0ZM420.07,344.2a34.26,34.26,0,0,1-34.26,34.26H126.19A34.26,34.26,0,0,1,91.93,344.2V234.78L247.13,296a24.26,24.26,0,0,0,17.74,0l155.2-61.2Zm0-154.1L256,256.17,91.93,190.1v-9.62a46.94,46.94,0,0,1,46.94-46.94H373.13a46.94,46.94,0,0,1,46.94,46.94Z"/></svg>