<?xml version="1.0" encoding="utf-8"?>
<!-- Generator: Adobe Illustrator 27.9.0, SVG Export Plug-In . SVG Version: 6.00 Build 0)  -->
<svg version="1.1" id="레이어_1" xmlns="http://www.w3.org/2000/svg" xmlns:xlink="http://www.w3.org/1999/xlink" x="0px"
	 y="0px" viewBox="0 0 512 512" style="enable-background:new 0 0 512 512;" xml:space="preserve">
<style type="text/css">
	.st0{fill:none;stroke:#3A000E;stroke-miterlimit:10;}
	.st1{fill:#0D52AF;}
	.st2{fill:#646464;}
	.st3{fill:#FFF8FA;}
</style>
<path class="st0" d="M937.2,375.6c1.8,1.8,20.9,20.2,48.4,15.4c25.6-4.5,37.4-25.5,38.8-28.1"/>
<path class="st1" d="M-338.3,380.7c-4.3,1.2-9.6-2.4-14-1.6c-4.4,0.8-8.4,3.4-12.8,3.8s-8.8-0.1-13.3-0.2c-4.2-0.1-8.2-1.4-12.1-1.6
	c-4.2-0.1-8.2-0.6-12.1-0.8c-4.2-0.2-8.3,1.1-12.2,0.8c-4.2-0.3-8.2-0.9-12.1-1.3c-4.2-0.4-8.5,1.1-12.3,0.6
	c-4.2-0.5-7.8-4.5-11.6-5c-4.3-0.6-9,4.3-12.8,3.8c-4.3-0.6-8-3.6-11.7-4c-4.4-0.5-8.4-3-12-3.1c-4.6-0.2-8.8,1.3-12.3,2
	c-5.9,1.2-10.9,3.1-14,5.7c-6.3,5.6-7.1,6-8.4,13.2c-0.7,3.5,0.8,7.9,1,12.4c0.1,3.7,0.1,7.9,0.7,12.1c0.6,3.8,0.2,8.1,1.1,12.2
	c0.9,3.8,4.8,7,6,11c1.1,3.8,0.1,8.3,1.4,12.2s5.7,6.4,7.2,10.3c1.5,3.9-0.5,8.8,1.1,12.6c1.6,3.8,6.4,5.9,8.1,9.7
	c1.7,3.7,0.7,8.6,2.5,12.2s5.9,6,7.8,9.6s0.7,8.9,2.7,12.4c2,3.5,6.2,5.7,8.4,9.1c2.2,3.4,3.4,7.5,5.7,10.8c2.3,3.3,6.9,5,9.3,8.2
	c2.4,3.2,2.9,8.2,5.4,11.2c2.6,3,5.3,6.1,8.5,8.9c3,2.5,6.4,5,9.9,7.3c3.3,2.2,6.2,5.6,9.9,7.5c3.7,1.9,8,2.2,11.8,3.8
	c3.7,1.5,7.2,4.2,11,5.5c3.9,1.3,7.9,2.3,11.9,3.2c4,1,8.1,1.5,12.1,2.1c4,0.7,8.1,2,12.1,2.3c4,0.3,8.3,0.5,12.3,0.5
	c4,0,8-2.6,11.8-3c3.9-0.4,7.5-3,11.3-3.8s8.6,1.4,12.3,0.2c3.7-1.3,8.1-1.7,11.6-3.4s5.9-6.1,9.3-8.1s6.8-4,10-6.3
	c3.2-2.3,7-4,10-6.5s4.6-6.7,7.3-9.5c2.8-2.8,5.1-5.9,7.7-8.9c2.6-3,3.9-6.8,6.3-10s4.1-6.6,6.3-9.9c2.2-3.3,6.8-5,8.8-8.4
	c2-3.4,1.1-8.3,2.9-11.8c1.8-3.5,6.7-5.4,8.4-9c1.6-3.6,3.1-7.3,4.6-10.9c1.5-3.6,1.6-7.9,2.8-11.5c1.3-3.8,2.3-7.5,3.4-11.3
	s4.8-6.9,5.7-10.7s-1.4-8.4-0.7-12.2s1.6-7.7,2.1-11.5c0.5-4,5.1-7.6,5.3-11.4c0.2-4.1-1.4-8.2-1.5-12c-0.1-4.2-0.9-8.1-1.4-11.8
	c-0.6-4.2-4.7-7-5.9-10.5s2.5-9.5,0.3-12.9c-1.9-3-5.2-6.8-8.9-9c-2.9-1.7-8.2,1.4-12.7,0.5c-3.3-0.7-6.6-4.2-11-4.4
	c-3.5-0.1-7.5-1.4-11.8-1.1c-3.6,0.2-7.4,1.3-11.6,1.8c-3.6,0.4-7.4,1.4-11.5,2.1c-3.6,0.6-7.8-0.4-11.8,0.4
	c-3.6,0.7-6.6,5.6-10.5,6.5c-3.6,0.8-8.1-1.3-12-0.3c-3.6,0.9-7.6,1.1-11.5,2.2C-331.8,374.5-334.4,379.7-338.3,380.7L-338.3,380.7z
	"/>
<path class="st2" d="M-52.8-294.9c0,141.2-114.5,255.6-255.6,255.6s-255.7-114.4-255.7-255.6s114.5-255.6,255.7-255.6
	S-52.8-436.1-52.8-294.9z"/>
<path class="st3" d="M1299.9-64.7c0,113-91.6,204.5-204.5,204.5S890.8,48.2,890.8-64.7s91.6-204.5,204.6-204.5
	C1208.4-269.2,1299.9-177.7,1299.9-64.7z"/>
<g>
	<path class="st2" d="M331.5,174.9L331.5,174.9c-28.4-5.5-25.4,38.7-69.1,44.2c-43.7,5.5-65.8-39.2-85.1-17.5
		c-17,19,24.1,73,91.7,57l-0.4-33.4l30.7,22.4C348.5,222.4,343.7,177.2,331.5,174.9z"/>
	
		<ellipse transform="matrix(0.9602 -0.2793 0.2793 0.9602 -37.7857 86.7267)" class="st2" cx="285.4" cy="175.9" rx="17.1" ry="16.5"/>
	
		<ellipse transform="matrix(0.9602 -0.2794 0.2794 0.9602 -42.5384 71.3217)" class="st2" cx="229" cy="184.9" rx="17.6" ry="17.1"/>
	<path class="st2" d="M256,0.4C114.8,0.4,0.3,114.8,0.3,256S115,511.6,256,511.6S511.7,397.2,511.7,256S397.2,0.4,256,0.4z
		 M394,417.8l-41.2,21.3L307.4,351l-36.6,50.1l-1.4-110.4c-1.9-0.3-3.9-0.6-5.6-0.3c-3.2,0.7-6.3,2.9-9.6,3.3
		c-3.3,0.3-6.6,2.6-10.1,2.6c-3.4,0-7-0.2-10.5-0.4c-3.4-0.3-6.9-1.4-10.3-2s-6.9-1-10.3-1.8c-3.4-0.8-6.8-1.7-10.1-2.7
		s-6.3-3.3-9.4-4.6c-3.2-1.4-6.9-1.6-10-3.2c-3.1-1.6-5.6-4.5-8.4-6.4c-3-2-5.9-4-8.4-6.2c-2.7-2.3-5-5-7.2-7.5
		c-2.2-2.5-2.6-6.8-4.6-9.5c-2.1-2.7-6-4.1-7.9-6.9c-2-2.8-3-6.2-4.8-9.2c-1.8-2.9-5.4-4.8-7.1-7.7c-1.7-3-0.7-7.5-2.3-10.5
		s-5.1-5-6.6-8.1c-1.5-3.1-0.7-7.2-2.2-10.4c-1.4-3.1-5.6-5-6.9-8.2s0.3-7.4-0.9-10.7c-1.2-3.3-5-5.4-6.1-8.7
		c-1.1-3.3-0.3-7.2-1.2-10.4c-1-3.4-4.3-6.1-5.1-9.3c-0.8-3.5-0.5-7.2-0.9-10.4c-0.5-3.6-0.5-7.1-0.6-10.3
		c-0.1-3.8-1.4-7.6-0.8-10.5c1.1-6.1,1.8-6.5,7.1-11.2c2.6-2.3,6.9-3.9,11.9-4.9c3-0.6,6.5-1.8,10.4-1.7c3.1,0.1,6.4,2.2,10.2,2.7
		c3.2,0.4,6.3,2.9,9.9,3.4c3.2,0.4,7.2-3.7,10.8-3.3c3.2,0.4,6.3,3.8,9.9,4.3c3.3,0.4,6.9-0.9,10.4-0.5c3.3,0.3,6.7,0.8,10.2,1.1
		c3.3,0.3,6.8-0.9,10.4-0.7c3.3,0.2,6.7,0.5,10.3,0.7c3.3,0.1,6.7,1.3,10.3,1.3c3.8,0.1,7.5,0.5,11.3,0.1c3.8-0.3,7.2-2.6,10.9-3.2
		c3.7-0.7,8.3,2.3,11.9,1.3l0,0c3.3-0.9,5.5-5.3,8.6-6.1c3.3-0.9,6.7-1.1,9.8-1.8c3.3-0.8,7.1,1,10.2,0.3c3.4-0.8,5.9-4.9,8.9-5.5
		c3.4-0.7,7,0.1,10-0.4c3.5-0.6,6.7-1.4,9.8-1.8c3.5-0.4,6.8-1.4,9.9-1.6c3.6-0.2,7,0.8,10,0.9c3.7,0.2,6.5,3.1,9.4,3.7
		c3.8,0.8,8.3-1.8,10.8-0.4c3.2,1.9,6,5.1,7.6,7.7c1.8,2.9-1.2,8-0.3,10.9c1,2.9,4.5,5.4,5,8.9c0.4,3.1,1.1,6.5,1.2,10
		c0.1,3.2,1.5,6.7,1.3,10.2c-0.2,3.2-4.1,6.3-4.5,9.7c-0.4,3.2-1.2,6.6-1.8,9.8c-0.6,3.2,1.3,7.2,0.6,10.4s-3.9,5.9-4.8,9.1
		c-0.9,3.2-1.8,6.4-2.9,9.6c-1.1,3.1-1.2,6.7-2.4,9.8c-1.2,3.1-2.5,6.2-3.9,9.3c-1.4,3-5.5,4.7-7.1,7.6c-1.5,3-0.8,7.2-2.5,10
		c-1.7,2.9-5.6,4.3-7.4,7.1c-1.9,2.8-3.3,5.7-5.3,8.4c-2,2.7-3.2,5.9-5.4,8.5c-1.8,2-3.4,4.1-5.2,6.1l94,68.7l-62,0.8L394,417.8z"/>
</g>
</svg>
