<?xml version="1.0" encoding="utf-8"?>
<!-- Generator: Adobe Illustrator 28.3.0, SVG Export Plug-In . SVG Version: 6.00 Build 0)  -->
<svg version="1.1" id="레이어_1" xmlns="http://www.w3.org/2000/svg" xmlns:xlink="http://www.w3.org/1999/xlink" x="0px"
	 y="0px" viewBox="0 0 512 512" style="enable-background:new 0 0 512 512;" xml:space="preserve">
<style type="text/css">
	.st0{fill:none;stroke:#3A000E;stroke-miterlimit:10;}
	.st1{fill:#0D52AF;}
	.st2{fill:#646464;}
	.st3{fill:#FFF8FA;}
	.st4{fill:#F1F1F1;}
</style>
<path class="st0" d="M937.2,375.6c1.8,1.8,20.9,20.2,48.4,15.4c25.6-4.5,37.4-25.5,38.8-28.1"/>
<path class="st1" d="M-338.3,380.7c-4.3,1.2-9.6-2.4-14-1.6s-8.4,3.4-12.8,3.8s-8.8-0.1-13.3-0.2c-4.2-0.1-8.2-1.4-12.1-1.6
	c-4.2-0.1-8.2-0.6-12.1-0.8c-4.2-0.2-8.3,1.1-12.2,0.8c-4.2-0.3-8.2-0.9-12.1-1.3c-4.2-0.4-8.5,1.1-12.3,0.6
	c-4.2-0.5-7.8-4.5-11.6-5c-4.3-0.6-9,4.3-12.8,3.8c-4.3-0.6-8-3.6-11.7-4c-4.4-0.5-8.4-3-12-3.1c-4.6-0.2-8.8,1.3-12.3,2
	c-5.9,1.2-10.9,3.1-14,5.7c-6.3,5.6-7.1,6-8.4,13.2c-0.7,3.5,0.8,7.9,1,12.4c0.1,3.7,0.1,7.9,0.7,12.1c0.6,3.8,0.2,8.1,1.1,12.2
	c0.9,3.8,4.8,7,6,11c1.1,3.8,0.1,8.3,1.4,12.2s5.7,6.4,7.2,10.3s-0.5,8.8,1.1,12.6c1.6,3.8,6.4,5.9,8.1,9.7
	c1.7,3.7,0.7,8.6,2.5,12.2s5.9,6,7.8,9.6s0.7,8.9,2.7,12.4s6.2,5.7,8.4,9.1c2.2,3.4,3.4,7.5,5.7,10.8c2.3,3.3,6.9,5,9.3,8.2
	s2.9,8.2,5.4,11.2c2.6,3,5.3,6.1,8.5,8.9c3,2.5,6.4,5,9.9,7.3c3.3,2.2,6.2,5.6,9.9,7.5c3.7,1.9,8,2.2,11.8,3.8
	c3.7,1.5,7.2,4.2,11,5.5c3.9,1.3,7.9,2.3,11.9,3.2c4,1,8.1,1.5,12.1,2.1c4,0.7,8.1,2,12.1,2.3s8.3,0.5,12.3,0.5s8-2.6,11.8-3
	c3.9-0.4,7.5-3,11.3-3.8s8.6,1.4,12.3,0.2c3.7-1.3,8.1-1.7,11.6-3.4s5.9-6.1,9.3-8.1s6.8-4,10-6.3s7-4,10-6.5s4.6-6.7,7.3-9.5
	c2.8-2.8,5.1-5.9,7.7-8.9s3.9-6.8,6.3-10s4.1-6.6,6.3-9.9c2.2-3.3,6.8-5,8.8-8.4s1.1-8.3,2.9-11.8c1.8-3.5,6.7-5.4,8.4-9
	c1.6-3.6,3.1-7.3,4.6-10.9s1.6-7.9,2.8-11.5c1.3-3.8,2.3-7.5,3.4-11.3s4.8-6.9,5.7-10.7s-1.4-8.4-0.7-12.2s1.6-7.7,2.1-11.5
	c0.5-4,5.1-7.6,5.3-11.4c0.2-4.1-1.4-8.2-1.5-12c-0.1-4.2-0.9-8.1-1.4-11.8c-0.6-4.2-4.7-7-5.9-10.5s2.5-9.5,0.3-12.9
	c-1.9-3-5.2-6.8-8.9-9c-2.9-1.7-8.2,1.4-12.7,0.5c-3.3-0.7-6.6-4.2-11-4.4c-3.5-0.1-7.5-1.4-11.8-1.1c-3.6,0.2-7.4,1.3-11.6,1.8
	c-3.6,0.4-7.4,1.4-11.5,2.1c-3.6,0.6-7.8-0.4-11.8,0.4c-3.6,0.7-6.6,5.6-10.5,6.5c-3.6,0.8-8.1-1.3-12-0.3
	c-3.6,0.9-7.6,1.1-11.5,2.2C-331.8,374.5-334.4,379.7-338.3,380.7L-338.3,380.7z"/>
<path class="st2" d="M-52.8-294.9c0,141.2-114.5,255.6-255.6,255.6s-255.7-114.4-255.7-255.6s114.5-255.6,255.7-255.6
	S-52.8-436.1-52.8-294.9z"/>
<path class="st3" d="M1299.9-64.7c0,113-91.6,204.5-204.5,204.5S890.8,48.2,890.8-64.7s91.6-204.5,204.6-204.5
	S1299.9-177.7,1299.9-64.7z"/>
<path class="st2" d="M1221.6,324.6l-41.2,21.3l-45.4-88.1l-36.6,50.1l-1.4-110.4c-1.9-0.3-3.9-0.6-5.6-0.3c-3.2,0.7-6.3,2.9-9.6,3.3
	c-3.3,0.3-6.6,2.6-10.1,2.6c-3.4,0-7-0.2-10.5-0.4c-3.4-0.3-6.9-1.4-10.3-2s-6.9-1-10.3-1.8s-6.8-1.7-10.1-2.7
	c-3.3-1-6.3-3.3-9.4-4.6c-3.2-1.4-6.9-1.6-10-3.2c-3.1-1.6-5.6-4.5-8.4-6.4c-3-2-5.9-4-8.4-6.2c-2.7-2.3-5-5-7.2-7.5
	c-2.2-2.5-2.6-6.8-4.6-9.5c-2.1-2.7-6-4.1-7.9-6.9c-2-2.8-3-6.2-4.8-9.2c-1.8-2.9-5.4-4.8-7.1-7.7c-1.7-3-0.7-7.5-2.3-10.5
	c-1.6-3-5.1-5-6.6-8.1s-0.7-7.2-2.2-10.4c-1.4-3.1-5.6-5-6.9-8.2c-1.3-3.2,0.3-7.4-0.9-10.7s-5-5.4-6.1-8.7
	c-1.1-3.3-0.3-7.2-1.2-10.4c-1-3.4-4.3-6.1-5.1-9.3c-0.8-3.5-0.5-7.2-0.9-10.4c-0.5-3.6-0.5-7.1-0.6-10.3c-0.1-3.8-1.4-7.6-0.8-10.5
	c1.1-6.1,1.8-6.5,7.1-11.2c2.6-2.3,6.9-3.9,11.9-4.9c3-0.6,6.5-1.8,10.4-1.7c3.1,0.1,6.4,2.2,10.2,2.7c3.2,0.4,6.3,2.9,9.9,3.4
	c3.2,0.4,7.2-3.7,10.8-3.3c3.2,0.4,6.3,3.8,9.9,4.3c3.3,0.4,6.9-0.9,10.4-0.5c3.3,0.3,6.7,0.8,10.2,1.1c3.3,0.3,6.8-0.9,10.4-0.7
	c3.3,0.2,6.7,0.5,10.3,0.7c3.3,0.1,6.7,1.3,10.3,1.3c3.8,0.1,7.5,0.5,11.3,0.1c3.8-0.3,7.2-2.6,10.9-3.2c3.7-0.7,8.3,2.3,11.9,1.3
	l0,0c3.3-0.9,5.5-5.3,8.6-6.1c3.3-0.9,6.7-1.1,9.8-1.8c3.3-0.8,7.1,1,10.2,0.3c3.4-0.8,5.9-4.9,8.9-5.5c3.4-0.7,7,0.1,10-0.4
	c3.5-0.6,6.7-1.4,9.8-1.8c3.5-0.4,6.8-1.4,9.9-1.6c3.6-0.2,7,0.8,10,0.9c3.7,0.2,6.5,3.1,9.4,3.7c3.8,0.8,8.3-1.8,10.8-0.4
	c3.2,1.9,6,5.1,7.6,7.7c1.8,2.9-1.2,8-0.3,10.9c1,2.9,4.5,5.4,5,8.9c0.4,3.1,1.1,6.5,1.2,10c0.1,3.2,1.5,6.7,1.3,10.2
	c-0.2,3.2-4.1,6.3-4.5,9.7c-0.4,3.2-1.2,6.6-1.8,9.8c-0.6,3.2,1.3,7.2,0.6,10.4s-3.9,5.9-4.8,9.1c-0.9,3.2-1.8,6.4-2.9,9.6
	c-1.1,3.1-1.2,6.7-2.4,9.8c-1.2,3.1-2.5,6.2-3.9,9.3c-1.4,3-5.5,4.7-7.1,7.6c-1.5,3-0.8,7.2-2.5,10c-1.7,2.9-5.6,4.3-7.4,7.1
	c-1.9,2.8-3.3,5.7-5.3,8.4s-3.2,5.9-5.4,8.5c-1.8,2-3.4,4.1-5.2,6.1l94,68.7l-62,0.8L1221.6,324.6z"/>
<path class="st2" d="M256,0.4C114.8,0.4,0.3,114.8,0.3,256S115,511.6,256,511.6S511.7,397.2,511.7,256S397.2,0.4,256,0.4z
	 M345.5,257.6c3.5,6.7,6.5,13.7,8.9,21.1c24.9,75.1-20,143.1-95,168c-47.1,15.7-95,10.5-130.2-14.1C86.8,410.5,60.9,360,68.6,305.9
	c5.4-37.9,26.1-69.5,54.2-88.2c9.6-8.7,20.6-16.2,32.6-22.1L260.7,57.9c4.1-5.3,12.6-1.4,10.5,4.8l-16.7,122.6
	c2.5,0.7,5,1.4,7.4,2.2L432.9,117c8.9-3.7,16.9,6.8,10.9,14.4L345.5,257.6z"/>
<path class="st4" d="M901.3,218.2l17.4-128c2-6.2-6.5-10.2-10.5-4.8l-124,162.1c-3.8,4.9,1.5,11.2,7.1,8.6L897.9,222
	C899.5,221.1,900.8,219.8,901.3,218.2z"/>
<path class="st4" d="M730.3,396.4c24.9,75,101.6,102.6,176.6,77.7s119.9-92.9,95-168c-24.9-75.1-105.9-115.6-180.9-90.7
	S705.4,321.4,730.3,396.4z"/>
<path class="st2" d="M202.2,200.2c-61.4-8.8-119,38.6-128.5,105.7c-9.6,67.1,32.5,128.6,93.9,137.4c61.4,8.8,119-38.6,128.5-105.7
	C305.6,270.5,263.6,209,202.2,200.2z M277.5,311.5c-6.3,5.3-17.6-19.8-38.6-44.9c-21.1-25.1-43.6-40.8-37.4-45.9
	c6.4-5.4,39.1,1.8,60.1,26.9C282.5,272.8,283.8,306.2,277.5,311.5z"/>
<path class="st4" d="M987.6,291.9l103.6-133c6-7.6-2-18.1-10.9-14.4l-178.9,73.8c-6.6,2.8-6.6,8-2.3,16l0,0
	c14.5,28.2,24.7,39.6,55.3,53.4c2.4,1.1,5.1,2,7.6,2.7l8,2c1.6,0.4,3.2,0.7,4.9,1C979.7,294.2,984.8,295.5,987.6,291.9z"/>
<path class="st2" d="M335.5,245.7l70.8-91.1c4-5.1-1.5-12.4-7.5-9.8l-122.4,50.5c-4.5,1.8-4.4,5.6-1.5,10.9l0,0
	c9.9,19.3,16.9,27.1,37.8,36.5c1.7,0.7,3.4,1.4,5.3,1.9l5.5,1.4c1.1,0.2,2.2,0.4,3.3,0.7C330.1,247.4,333.6,248.3,335.5,245.7z"/>
<path class="st2" d="M203.6,180.3c9.5-1,18.6-1.2,27.1-0.6l9.8-71.5c1.1-3.6-3.7-5.8-5.9-2.7l-62.5,81.7
	C181.4,184,192.1,181.6,203.6,180.3z"/>
</svg>
