<?xml version="1.0" encoding="utf-8"?>
<!-- Generator: Adobe Illustrator 26.3.1, SVG Export Plug-In . SVG Version: 6.00 Build 0)  -->
<svg version="1.1" id="레이어_1" xmlns="http://www.w3.org/2000/svg" xmlns:xlink="http://www.w3.org/1999/xlink" x="0px"
	 y="0px" viewBox="0 0 512 512" style="enable-background:new 0 0 512 512;" xml:space="preserve">
<style type="text/css">
	.st0{fill:#646464;}
</style>
<path class="st0" d="M256,453c-109.1,0-197-87.9-197-197c0-100.2,74.7-182.8,171.5-195.4c14.6-1.9,25.5-14.5,25.5-29.2v0
	c0-17.9-15.8-31.6-33.5-29.2C96.9,18.6,0,126,0,256c0,140,116,256,256,256c130,0,237.4-96.9,253.8-222.5
	c2.3-17.7-11.4-33.5-29.2-33.5h0c-14.8,0-27.3,10.9-29.2,25.5C438.8,378.3,356.2,453,256,453z"/>
</svg>
