<?xml version="1.0" encoding="UTF-8"?>
<svg id="_레이어_1" data-name="레이어 1" xmlns="http://www.w3.org/2000/svg" viewBox="0 0 512 512">
  <defs>
    <style>
      .cls-1 {
        fill: #646464;
        stroke-width: 0px;
      }
    </style>
  </defs>
  <path class="cls-1" d="M256,.4C114.8.4.3,114.8.3,256s114.7,255.6,255.7,255.6,255.7-114.4,255.7-255.6S397.2.4,256,.4ZM345.52,257.62c3.48,6.69,6.49,13.75,8.95,21.14,24.94,75.08-20.02,143.06-94.97,167.96-47.15,15.66-95,10.51-130.22-14.12-42.52-22.1-68.37-72.59-60.66-126.72,5.4-37.9,26.1-69.49,54.16-88.24,9.63-8.7,20.55-16.17,32.6-22.1l105.34-137.66c4.09-5.32,12.58-1.39,10.55,4.85l-16.68,122.61c2.5.65,4.99,1.37,7.45,2.16l170.86-70.48c8.89-3.68,16.92,6.83,10.93,14.39l-98.32,126.2Z"/>
  <path class="cls-1" d="M202.17,200.21c-61.43-8.75-118.98,38.57-128.55,105.7-9.57,67.13,32.47,128.65,93.9,137.4,61.43,8.75,118.98-38.57,128.55-105.7,9.57-67.13-32.48-128.65-93.9-137.4ZM277.5,311.49c-6.29,5.31-17.57-19.8-38.65-44.89-21.08-25.08-43.58-40.76-37.37-45.9,6.42-5.36,39.13,1.8,60.08,26.93,20.95,25.13,22.23,58.55,15.94,63.86Z"/>
  <path class="cls-1" d="M335.51,245.72l70.84-91.08c4.01-5.14-1.48-12.4-7.51-9.81l-122.42,50.49c-4.53,1.8-4.45,5.58-1.51,10.9h0c9.92,19.27,16.9,27.06,37.78,36.53,1.71.75,3.38,1.37,5.32,1.9l5.45,1.41c1.1.22,2.2.44,3.3.66,3.3.66,6.81,1.55,8.75-1Z"/>
  <path class="cls-1" d="M203.58,180.3c9.49-1.04,18.63-1.19,27.08-.59l9.79-71.49c1.15-3.6-3.69-5.81-5.89-2.73l-62.49,81.68c9.36-3.2,20.05-5.61,31.51-6.87Z"/>
</svg>