<?xml version="1.0" encoding="utf-8"?>
<!-- Generator: Adobe Illustrator 25.4.1, SVG Export Plug-In . SVG Version: 6.00 Build 0)  -->
<svg version="1.1" id="레이어_1" xmlns="http://www.w3.org/2000/svg" xmlns:xlink="http://www.w3.org/1999/xlink" x="0px"
	 y="0px" viewBox="0 0 512 512" style="enable-background:new 0 0 512 512;" xml:space="preserve">
<style type="text/css">
	.st0{fill:#646464;}
</style>
<path class="st0" d="M130.8,154.6v20.1h47.9l36.4,205.2l47.5-3.4c46.7-59.1,78.1-103.4,94.4-132.8c16.6-29.7,24.9-54.5,24.9-74.3
	c0-11.8-3.5-20.8-10.5-26.8c-6.7-6.1-15.2-9.1-25.4-9.1c-19.2,0-35.2,8.1-47.9,24.4c12.5,8.3,20.9,15.2,25.4,20.6
	c4.8,5.1,7.2,12,7.2,20.6c0,14.4-4.3,30.7-12.9,48.9c-8.3,18.2-17.4,34.4-27.3,48.4c-6.4,8.9-14.5,20-24.4,33.1l-31.2-176.9
	c-2.6-12.8-10.5-19.2-24-19.2c-6.1,0-17.7,2.6-35,7.7C158.6,146,143.6,150.4,130.8,154.6z M512,256c0,141.2-114.5,255.6-255.6,255.6
	S0.7,397.2,0.7,256S115.2,0.4,256.4,0.4S512,114.8,512,256z"/>
</svg>
