<?xml version="1.0" encoding="utf-8"?>
<!-- Generator: Adobe Illustrator 26.3.1, SVG Export Plug-In . SVG Version: 6.00 Build 0)  -->
<svg version="1.1" id="레이어_1" xmlns="http://www.w3.org/2000/svg" xmlns:xlink="http://www.w3.org/1999/xlink" x="0px"
	 y="0px" viewBox="0 0 511.3 511.3" style="enable-background:new 0 0 511.3 511.3;" xml:space="preserve">
<style type="text/css">
	.st0{fill:#23C185;}
</style>
<path class="st0" d="M456.4,0H54.8C24.5,0,0,24.5,0,54.8v401.7c0,30.2,24.5,54.8,54.8,54.8h401.7c30.2,0,54.8-24.5,54.8-54.8V54.8
	C511.2,24.5,486.7,0,456.4,0z M356.6,243.3c-16.3,29.4-47.7,73.7-94.4,132.8l-47.5,3.4l-36.4-205.2h-47.9v-20.1
	c12.8-4.2,27.8-8.6,45.1-13.5c17.3-5.1,28.9-7.7,35-7.7c13.5,0,21.4,6.4,24,19.2l31.2,176.9c9.9-13.1,18-24.2,24.4-33.1
	c9.9-14,19-30.2,27.3-48.4c8.6-18.2,12.9-34.5,12.9-48.9c0-8.6-2.4-15.5-7.2-20.6c-4.5-5.4-12.9-12.3-25.4-20.6
	c12.7-16.3,28.7-24.4,47.9-24.4c10.2,0,18.7,3,25.4,9.1c7,6,10.5,15,10.5,26.8C381.5,188.8,373.2,213.6,356.6,243.3z"/>
</svg>
