<?xml version="1.0" encoding="utf-8"?>
<!-- Generator: Adobe Illustrator 27.0.0, SVG Export Plug-In . SVG Version: 6.00 Build 0)  -->
<svg version="1.1" id="레이어_1" xmlns="http://www.w3.org/2000/svg" xmlns:xlink="http://www.w3.org/1999/xlink" x="0px"
	 y="0px" viewBox="0 0 1417.3 907.1" style="enable-background:new 0 0 1417.3 907.1;" xml:space="preserve">
<style type="text/css">
	.st0{fill:url(#겉_면_00000000214607195620331280000015969474329649840043_);}
	.st1{fill:#F4EFDC;}
	.st2{fill:#F7C8C9;}
	.st3{fill:#EA6263;}
	.st4{fill:url(#표면_빛_반사_00000139994854436134504290000002635455885161592206_);}
</style>
<g>
	
		<linearGradient id="겉_면_00000114048489572089591410000009809280256925503649_" gradientUnits="userSpaceOnUse" x1="33.8005" y1="302.3632" x2="1383.3982" y2="302.3632" gradientTransform="matrix(1 0 0 -1 0 908)">
		<stop  offset="0" style="stop-color:#AD3F3E"/>
		<stop  offset="7.000000e-02" style="stop-color:#B15151"/>
		<stop  offset="0.16" style="stop-color:#B77070"/>
		<stop  offset="0.24" style="stop-color:#B66B6B"/>
		<stop  offset="0.34" style="stop-color:#B35B5B"/>
		<stop  offset="0.45" style="stop-color:#AE4241"/>
		<stop  offset="0.47" style="stop-color:#AD3F3E"/>
		<stop  offset="0.57" style="stop-color:#AE4342"/>
		<stop  offset="0.68" style="stop-color:#B04F4E"/>
		<stop  offset="0.79" style="stop-color:#B46363"/>
		<stop  offset="0.85" style="stop-color:#B77070"/>
		<stop  offset="0.86" style="stop-color:#B66A6A"/>
		<stop  offset="0.9" style="stop-color:#B15252"/>
		<stop  offset="0.95" style="stop-color:#AE4443"/>
		<stop  offset="0.98" style="stop-color:#AD3F3E"/>
	</linearGradient>
	<path id="겉_면" style="fill:url(#겉_면_00000114048489572089591410000009809280256925503649_);" d="M1383.1,692.3
		c-5.8,69.6-160.4,119.2-177.4,124.5c-140,43.7-263,44.4-343.1,42.8c-174.2-3.6-319.5-9.5-504.7-64C192.6,747,115.6,694,73.7,617.7
		c-24.2-44.2-31.3-92.8-31.3-92.8c-0.3-2.3-1.2-7.3-2.4-15.3c0,0-2.9-20-4.6-42.2c-1.5-19.8-2.6-61.5-0.2-116.2l1348,214.1
		c0.1,18.7,0.2,47.4,0.2,82.8C1383.3,675.7,1383.3,689.6,1383.1,692.3z"/>
	<path id="테두리" class="st1" d="M1377.3,606.7c-55.9,162.7-507.3,195-824.3,139.1c-164-28.9-381.8-63.6-474.3-221.2
		c-18.2-31-69-130.6-30.1-243.1C86,172.9,183.7,120,218.6,101C329.1,41.2,437.9,46.7,512,49.7c62.3,2.6,192.2,7.9,303.9,84.7
		c130.7,89.8,87.5,191.6,199.6,243.9c110.5,51.6,195.8-22.9,284.5,36.9C1359.9,455.6,1399.5,542.2,1377.3,606.7z"/>
	<path id="표면" class="st2" d="M1356.8,596c-39.4,153.8-488.4,177.5-800,130.2C389.2,700.9,197.1,666.4,110,517.9
		c-17.1-29.2-65-123-28.4-229C117,186.7,209,136.8,241.9,119c104.1-56.5,206.6-51.3,276.4-48.4c80.9,3.3,189.6,9.5,286.2,79.7
		c126.4,91.8,88.3,190,198.3,245.1c113.7,56.9,205.4-22.5,290.9,49.1C1333.1,477.7,1370.5,542.4,1356.8,596z"/>
	<path id="무늬1" class="st3" d="M621.4,286.1c2.5,84-83.7,156.2-106.9,175.8c-41.2,34.6-87,52.5-145.4,50.7
		c-114.9-3.7-262.7-83.5-263-172.1C105.9,282,169.8,222.9,220,210.2c53.3-13.5,64.8,31.8,120.1,19.8c62.2-13.5,68.2-75.2,122.6-89.1
		C534.4,122.7,618.9,205.2,621.4,286.1z"/>
	<path id="무늬2" class="st3" d="M1303.5,526.6c0.6,17.7-6.8,44-44.7,79.7c-9.2,14.3-56,84.1-114.7,62
		c-53.3-20-103.9-111.2-96.3-166.3c8.9-64.3,95.1-64.6,114.8-64.7C1223.6,437,1301.7,473.4,1303.5,526.6z"/>
	<path id="무늬3" class="st3" d="M1004.4,527.5c-0.2,16.9-3.6,64.8-35.9,109.5c-6.9,9.5-14.7,18.4-23.3,26.4
		c-14.7,13.5-38.8,30.9-83.1,43.2c-81.3,22.5-165.1,9.7-247.3-3.6c-71.7-11.6-97.2-22-110.3-44.5c-15.4-26.4-11.6-65.6-11.2-69
		c1.6-15.1,5.9-29.9,12.5-43.6c15.5-32.1,33-43.1,47-53.1c0,0,13.2-9.5,61.2-54.3c63.2-59.1,54.8-145.8,115.3-199.9
		c21.8-19.5,50.3-45,82.2-29.1c32.4,16.2,49,60.5,101,149.1c8.8,15.6,20.3,29.5,33.9,41.1c13.7,11.5,20.5,12.9,28.9,19.2
		C1007.6,443.3,1004.8,498.7,1004.4,527.5z"/>
	
		<linearGradient id="표면_빛_반사_00000093146393537793984260000018037803035881956489_" gradientUnits="userSpaceOnUse" x1="113.3393" y1="749.4249" x2="1256.647" y2="89.3362" gradientTransform="matrix(1 0 0 -1 0 908)">
		<stop  offset="0" style="stop-color:#FFFFFF;stop-opacity:0.11"/>
		<stop  offset="0.22" style="stop-color:#FFFFFF;stop-opacity:0.12"/>
		<stop  offset="0.3" style="stop-color:#FFFFFF;stop-opacity:0.15"/>
		<stop  offset="0.36" style="stop-color:#FFFFFF;stop-opacity:0.19"/>
		<stop  offset="0.4" style="stop-color:#FFFFFF;stop-opacity:0.26"/>
		<stop  offset="0.42" style="stop-color:#FFFFFF;stop-opacity:0.3"/>
		<stop  offset="0.45" style="stop-color:#FFFFFF;stop-opacity:0.25"/>
		<stop  offset="0.51" style="stop-color:#FFFFFF;stop-opacity:0.14"/>
		<stop  offset="0.58" style="stop-color:#FFFFFF;stop-opacity:6.000000e-02"/>
		<stop  offset="0.64" style="stop-color:#FFFFFF;stop-opacity:2.000000e-02"/>
		<stop  offset="0.71" style="stop-color:#FFFFFF;stop-opacity:0"/>
		<stop  offset="0.81" style="stop-color:#FFFFFF;stop-opacity:0"/>
		<stop  offset="1" style="stop-color:#FFFFFF;stop-opacity:0.3"/>
	</linearGradient>
	<path id="표면_빛_반사" style="fill:url(#표면_빛_반사_00000093146393537793984260000018037803035881956489_);" d="
		M1377.3,605.7c-55.9,162.7-507.3,194.9-824.3,139.1c-164-28.9-381.8-63.7-474.3-221.2c-18.2-31-69-130.5-30.1-243.1
		C86,171.9,183.7,118.9,218.6,100C329.1,40.1,437.9,45.6,512,48.7c62.3,2.6,192.2,7.9,303.9,84.7c130.7,89.8,87.5,191.6,199.7,244
		c110.5,51.6,195.8-22.9,284.5,36.9C1359.9,454.5,1399.5,541.1,1377.3,605.7z"/>
</g>
</svg>
