<svg id="레이어_1" data-name="레이어 1" xmlns="http://www.w3.org/2000/svg" xmlns:xlink="http://www.w3.org/1999/xlink" viewBox="0 0 1417.32 907.09"><defs><style>.cls-1{fill:url(#무제_그라디언트_5);}.cls-2{fill:#f4efdc;}.cls-3{fill:#f7c8c9;}.cls-4{fill:#ea6263;}.cls-5{fill:url(#무제_그라디언트_4);}.cls-6,.cls-7{font-size:21.62px;}.cls-6{font-family:AdobeMyungjoStd-Medium-KSCpc-EUC-H, Adobe Myungjo Std;}.cls-7{font-family:Avenir-Light, Avenir;font-weight:300;}</style><linearGradient id="무제_그라디언트_5" x1="32.86" y1="624.59" x2="1382.47" y2="624.59" gradientUnits="userSpaceOnUse"><stop offset="0" stop-color="#ad3f3e"/><stop offset="0.07" stop-color="#b15151"/><stop offset="0.16" stop-color="#b77070"/><stop offset="0.24" stop-color="#b66b6b"/><stop offset="0.34" stop-color="#b35b5b"/><stop offset="0.45" stop-color="#ae4241"/><stop offset="0.47" stop-color="#ad3f3e"/><stop offset="0.57" stop-color="#ae4342"/><stop offset="0.68" stop-color="#b04f4e"/><stop offset="0.79" stop-color="#b46363"/><stop offset="0.85" stop-color="#b77070"/><stop offset="0.86" stop-color="#b66a6a"/><stop offset="0.9" stop-color="#b15252"/><stop offset="0.95" stop-color="#ae4443"/><stop offset="0.98" stop-color="#ad3f3e"/></linearGradient><linearGradient id="무제_그라디언트_4" x1="112.39" y1="177.54" x2="1255.7" y2="837.63" gradientUnits="userSpaceOnUse"><stop offset="0" stop-color="#fff" stop-opacity="0.11"/><stop offset="0.22" stop-color="#fff" stop-opacity="0.12"/><stop offset="0.3" stop-color="#fff" stop-opacity="0.15"/><stop offset="0.36" stop-color="#fff" stop-opacity="0.19"/><stop offset="0.4" stop-color="#fff" stop-opacity="0.26"/><stop offset="0.42" stop-color="#fff" stop-opacity="0.3"/><stop offset="0.45" stop-color="#fff" stop-opacity="0.25"/><stop offset="0.51" stop-color="#fff" stop-opacity="0.14"/><stop offset="0.58" stop-color="#fff" stop-opacity="0.06"/><stop offset="0.64" stop-color="#fff" stop-opacity="0.02"/><stop offset="0.71" stop-color="#fff" stop-opacity="0"/><stop offset="0.81" stop-color="#fff" stop-opacity="0"/><stop offset="1" stop-color="#fff" stop-opacity="0.3"/></linearGradient></defs><path id="겉_면" data-name="겉 면" class="cls-1" d="M1382.14,711.29c-5.75,69.59-160.43,119.25-177.37,124.54-140,43.71-263,44.43-343.13,42.78-174.21-3.59-319.51-9.51-504.71-64C191.71,766,114.63,713,72.77,636.69c-24.23-44.16-31.3-92.84-31.3-92.84-.29-2.29-1.24-7.27-2.43-15.29,0,0-2.9-20-4.57-42.23-1.49-19.83-2.62-61.47-.2-116.2l1348,214.08c.12,18.7.24,47.43.17,82.79C1382.4,694.69,1382.37,708.54,1382.14,711.29Z"/><path id="테두리" class="cls-2" d="M1376.33,625.7C1320.39,788.4,869,820.65,552,764.79c-164-28.9-381.85-63.64-474.28-221.22-18.16-31-69-130.55-30.14-243.08C85.09,191.9,182.8,138.93,217.65,120,328.17,60.12,437,65.64,511.07,68.67c62.35,2.56,192.16,7.88,303.89,84.66,130.68,89.79,87.55,191.59,199.65,243.95,110.47,51.6,195.78-22.89,284.53,36.93C1358.94,474.52,1398.54,561.12,1376.33,625.7Z"/><path id="표면" class="cls-3" d="M1355.84,615c-39.36,153.84-488.37,177.48-800,130.25-167.56-25.39-359.64-59.9-446.73-208.38-17.11-29.16-65-123-28.39-229C116.07,205.65,208.1,155.75,240.93,138,345,81.51,447.5,86.71,517.31,89.57c80.87,3.32,189.62,9.54,286.24,79.74,126.41,91.84,88.3,190.05,198.28,245.1,113.68,56.91,205.37-22.52,290.87,49.14C1332.2,496.65,1369.58,561.34,1355.84,615Z"/><path id="무늬1" class="cls-4" d="M620.42,305.1c2.51,84-83.65,156.25-106.9,175.75-41.23,34.6-87,52.52-145.37,50.65-114.89-3.67-262.7-83.48-263-172.11C105,301,168.83,241.9,219.09,229.17c53.3-13.51,64.84,31.8,120.15,19.8,62.18-13.49,68.23-75.23,122.64-89.1C533.43,141.62,618,224.14,620.42,305.1Z"/><path id="무늬2" class="cls-4" d="M1302.57,545.53c.6,17.73-6.81,44-44.74,79.65-9.23,14.33-56,84.06-114.71,62-53.34-20-103.87-111.23-96.26-166.25,8.88-64.26,95.09-64.6,114.75-64.68C1222.69,456,1300.75,492.31,1302.57,545.53Z"/><path id="무늬3" class="cls-4" d="M1003.46,546.45c-.22,16.92-3.62,64.81-35.86,109.45a177.38,177.38,0,0,1-23.32,26.37c-14.7,13.52-38.8,30.89-83.13,43.16-81.31,22.5-165.1,9.7-247.3-3.56-71.73-11.58-97.19-22-110.3-44.48-15.38-26.37-11.58-65.62-11.22-69a134,134,0,0,1,12.47-43.64c15.46-32.12,33-43.11,47-53.13,0,0,13.24-9.49,61.22-54.33,63.19-59.07,54.85-145.82,115.29-199.91,21.75-19.46,50.29-45,82.25-29.08,32.43,16.17,49,60.48,101,149.14a152.2,152.2,0,0,0,33.92,41.1c13.65,11.47,20.55,12.91,28.87,19.24C1006.63,462.25,1003.83,517.7,1003.46,546.45Z"/><path id="표면_빛_반사" data-name="표면 빛 반사" class="cls-5" d="M1376.33,624.65C1320.39,787.35,869,819.6,552,763.75c-164-28.91-381.85-63.65-474.28-221.23-18.16-31-69-130.54-30.14-243.08C85.09,190.85,182.8,137.88,217.65,119,328.17,59.07,437,64.59,511.07,67.63,573.42,70.18,703.23,75.5,815,152.28c130.68,89.8,87.55,191.59,199.65,244,110.47,51.6,195.78-22.89,284.53,36.93C1358.94,473.47,1398.54,560.07,1376.33,624.65Z"/><text id="카피라이트" class="cls-6" transform="matrix(0.71, -0.7, 0.7, 0.71, 97.76, 179.91)">ⓒ</text><text class="cls-7" transform="matrix(0.74, -0.67, 0.67, 0.74, 113.2, 164.96)"> </text><text class="cls-7" transform="translate(117.27 161.2) rotate(-41.12)">2</text><text class="cls-7" transform="matrix(0.77, -0.64, 0.64, 0.77, 125.66, 153.88)">0</text><text class="cls-7" transform="translate(134.25 146.8) rotate(-37.93)">2</text><text class="cls-7" transform="matrix(0.8, -0.59, 0.59, 0.8, 143.03, 139.95)">1</text><text class="cls-7" transform="matrix(0.82, -0.58, 0.58, 0.82, 152.05, 133.33)">.</text><text class="cls-7" transform="matrix(0.82, -0.57, 0.57, 0.82, 156.59, 130.11)"> </text><text class="cls-7" transform="translate(161.13 126.94) rotate(-33.47)">R</text><text class="cls-7" transform="translate(171.73 119.92) rotate(-31.84)">A</text><text class="cls-7" transform="matrix(0.86, -0.5, 0.5, 0.86, 184.24, 112.16)">R</text><text class="cls-7" transform="translate(195.23 105.74) rotate(-29.13)">E</text><text class="cls-7" transform="translate(206.36 99.49) rotate(-27.95)">B</text><text class="cls-7" transform="translate(218.28 93.1) rotate(-26.76)">E</text><text class="cls-7" transform="translate(229.63 87.37) rotate(-25.13)">E</text><text class="cls-7" transform="translate(241.16 81.97) rotate(-23.55)">F</text><text class="cls-7" transform="matrix(0.92, -0.38, 0.38, 0.92, 252.12, 77.23)"> </text><text class="cls-7" transform="translate(257.22 75.07) rotate(-21.13)">A</text><text class="cls-7" transform="translate(270.96 69.81) rotate(-19.87)">l</text><text class="cls-7" transform="translate(275.82 68.05) rotate(-19.21)">l</text><text class="cls-7" transform="translate(280.68 66.36) rotate(-18.54)"> </text><text class="cls-7" transform="matrix(0.95, -0.3, 0.3, 0.95, 285.92, 64.57)">R</text><text class="cls-7" transform="matrix(0.96, -0.28, 0.28, 0.96, 298.11, 60.78)">i</text><text class="cls-7" transform="matrix(0.97, -0.26, 0.26, 0.97, 303.01, 59.31)">g</text><text class="cls-7" transform="translate(315.65 55.89) rotate(-13.65)">h</text><text class="cls-7" transform="translate(327.27 53.09) rotate(-12.52)">t</text><text class="cls-7" transform="translate(334.22 51.54) rotate(-11.58)">s</text><text class="cls-7" transform="translate(343.2 49.72) rotate(-10.74)"> </text><text class="cls-7" transform="matrix(0.99, -0.17, 0.17, 0.99, 348.66, 48.65)">R</text><text class="cls-7" transform="translate(361.21 46.5) rotate(-8.36)">e</text><text class="cls-7" transform="matrix(0.99, -0.13, 0.13, 0.99, 373.04, 44.78)">s</text><text class="cls-7" transform="translate(382.1 43.61) rotate(-6.18)">e</text><text class="cls-7" transform="matrix(1, -0.09, 0.09, 1, 393.98, 42.35)">r</text><text class="cls-7" transform="translate(401.12 41.68) rotate(-4.43)">v</text><text class="cls-7" transform="matrix(1, -0.06, 0.06, 1, 411.02, 40.91)">e</text><text class="cls-7" transform="translate(422.96 40.19) rotate(-2.36)">d</text><text class="cls-7" transform="matrix(1, -0.03, 0.03, 1, 436.09, 39.67)">.</text></svg>