<?xml version="1.0" encoding="UTF-8"?>
<svg id="_레이어_1" xmlns="http://www.w3.org/2000/svg" viewBox="0 0 512 512">
  <defs>
    <style>.cls-1{fill:#fff;}.cls-2{fill:#c80028;}.cls-3{fill:#0d52af;}.cls-4{fill:none;stroke:#3a000e;stroke-linecap:round;stroke-miterlimit:10;stroke-width:3.53px;}</style>
  </defs>
  <path class="cls-3" d="m294.06,112.88c-6.18,1.73-13.9-3.39-20.2-2.25s-12.06,4.95-18.45,5.48-12.71-.16-19.12-.25c-6.02-.09-11.75-2.05-17.41-2.25-6.03-.21-11.77-.82-17.41-1.14-6.04-.34-11.96,1.55-17.57,1.11-6.06-.48-11.8-1.35-17.38-1.91-6.08-.61-12.18,1.58-17.71.93-6.11-.72-11.24-6.51-16.72-7.23-6.16-.82-12.99,6.26-18.41,5.52-6.25-.85-11.53-5.15-16.88-5.77-6.4-.74-12.05-4.34-17.29-4.54-6.62-.26-12.66,1.86-17.72,2.87-8.46,1.69-15.78,4.41-20.13,8.27-9.03,8.02-10.26,8.59-12.05,19.02-.98,5.06,1.2,11.41,1.4,17.9.16,5.38.15,11.32,1.06,17.5.8,5.46.27,11.63,1.61,17.6,1.23,5.46,6.92,10.06,8.58,15.86,1.55,5.44.13,11.98,2.03,17.65s8.21,9.28,10.31,14.83-.75,12.73,1.53,18.17,9.27,8.57,11.72,13.91,1.04,12.36,3.66,17.59,8.49,8.68,11.28,13.8.96,12.87,3.91,17.88,8.99,8.24,12.12,13.12c3.17,4.95,4.92,10.82,8.23,15.54s9.94,7.21,13.45,11.76,4.11,11.8,7.85,16.12,7.69,8.86,12.3,12.78c4.29,3.64,9.26,7.16,14.27,10.47,4.73,3.13,8.96,8.03,14.23,10.81s11.52,3.21,16.98,5.51c5.29,2.22,10.31,6.05,15.92,7.89s11.4,3.26,17.11,4.66,11.66,2.11,17.44,3.06,11.63,2.84,17.45,3.34,11.95.74,17.77.76,11.52-3.74,17.08-4.33,10.77-4.32,16.26-5.52,12.43,2.06,17.77.25,11.65-2.51,16.79-4.89,8.47-8.8,13.36-11.69,9.85-5.74,14.46-9.08,10.08-5.72,14.4-9.44,6.56-9.67,10.58-13.72,7.41-8.5,11.13-12.82c3.69-4.29,5.65-9.83,9.09-14.38s5.85-9.5,9.01-14.24c3.14-4.72,9.73-7.18,12.62-12.07s1.59-12,4.22-17.03,9.67-7.83,12.04-12.97,4.52-10.49,6.64-15.73,2.24-11.33,4.1-16.64c1.9-5.42,3.3-10.86,4.9-16.24s6.87-10,8.2-15.44-1.99-12.16-.95-17.63,2.29-11.14,3-16.63c.75-5.81,7.31-10.95,7.65-16.44.36-5.9-2.03-11.85-2.16-17.29-.14-5.99-1.33-11.72-2.07-17.03-.85-6.04-6.84-10.16-8.46-15.16s3.56-13.69.5-18.55c-2.74-4.35-7.43-9.79-12.87-13.02-4.11-2.44-11.85,2.07-18.27.69-4.77-1.02-9.53-6.03-15.88-6.29-5.02-.21-10.79-1.96-16.96-1.61-5.13.29-10.73,1.92-16.74,2.64-5.18.62-10.68,2.05-16.56,3.03-5.2.86-11.21-.52-17,.63-5.22,1.04-9.45,8.03-15.17,9.32-5.22,1.18-11.68-1.88-17.33-.48-5.22,1.29-10.94,1.65-16.55,3.14-5.22,1.39-8.99,8.8-14.55,10.36Z"/>
  <path class="cls-2" d="m420.05,223.31c23.94,4.61,31.18,107.78-103.53,141.51-116.33,29.12-187.28-63.62-158.2-96.16,32.86-36.76,70.4,39.13,144.51,29.72,74.12-9.42,68.97-84.36,117.22-75.06Z"/>
  <path class="cls-4" d="m183.86,290.76c4.56,4.55,54.35,52.52,125.71,39.97,66.46-11.68,97.15-66.27,100.85-73.13"/>
  <ellipse class="cls-1" cx="341.72" cy="225.15" rx="29" ry="28.03" transform="translate(-49.29 104.41) rotate(-16.22)"/>
  <ellipse cx="340.96" cy="226.46" rx="22.8" ry="22.49"/>
  <ellipse class="cls-1" cx="245.93" cy="240.37" rx="29.89" ry="29.02" transform="translate(-57.35 78.26) rotate(-16.22)"/>
  <ellipse cx="245.25" cy="240.13" rx="22.8" ry="22.49"/>
</svg>