<?xml version="1.0" encoding="utf-8"?>
<!-- Generator: Adobe Illustrator 26.5.0, SVG Export Plug-In . SVG Version: 6.00 Build 0)  -->
<svg version="1.1" id="레이어_1" xmlns="http://www.w3.org/2000/svg" xmlns:xlink="http://www.w3.org/1999/xlink" x="0px"
	 y="0px" viewBox="0 0 512 512" style="enable-background:new 0 0 512 512;" xml:space="preserve">
<style type="text/css">
	.st0{fill:#330000;}
	.st1{fill:#FF9A00;}
</style>
<rect class="st0" width="512" height="512"/>
<g>
	<path class="st1" d="M256.7,331.7h-88.6l-18.1,56c-0.5,2.2-2.4,3.5-4.6,3.3h-44.8c-2.6,0-3.3-1.5-2.6-4.3l76.7-220.8
		c0.7-2.4,1.5-5,2.4-7.9c0.9-5,1.5-10.3,1.5-15.4c-0.2-1.1,0.7-2.4,1.9-2.6h61.7c1.9,0,2.9,0.7,3.1,1.9l87,245.4
		c0.7,2.6,0,3.8-2.4,3.8h-49.8c-1.7,0.2-3.3-0.9-3.8-2.6L256.7,331.7z M181.9,283.3h60.5c-1.5-5-3.3-11-5.5-17.1
		c-2.2-6.4-4.3-13.4-6.4-20.5c-2.4-7.4-4.6-14.5-6.9-21.9c-2.4-7.4-4.6-14.3-6.4-21.3c-1.9-6.6-3.5-12.9-5.3-18.6h-0.6
		c-2.2,10.3-4.8,20.5-8.1,30.7c-3.5,11.4-7.2,23.3-11,35.3C189,262.1,185.5,273.3,181.9,283.3z"/>
	<path class="st1" d="M384.2,180.6c-7.9,0.2-15.4-2.9-21.3-8.3c-5.5-5.9-8.3-13.8-8.1-21.9c-0.2-8.1,2.9-15.8,8.6-21.3
		c5.7-5.5,13.4-8.3,21.3-8.3c9.3,0,16.5,2.9,21.7,8.3c5.3,5.7,8.1,13.4,7.9,21.3c0.2,8.1-2.6,16-8.3,21.9
		C400.3,177.9,392.2,181,384.2,180.6L384.2,180.6z M357.5,387.4V204c0-2.4,0.9-3.3,3.1-3.3h47.2c2.2,0,3.1,1.1,3.1,3.3v183.4
		c0,2.6-0.9,3.8-3.1,3.8H361C358.6,391.2,357.5,389.7,357.5,387.4z"/>
</g>
</svg>
