<?xml version="1.0" encoding="utf-8"?>
<!-- Generator: Adobe Illustrator 26.5.0, SVG Export Plug-In . SVG Version: 6.00 Build 0)  -->
<svg version="1.1" id="레이어_1" xmlns="http://www.w3.org/2000/svg" xmlns:xlink="http://www.w3.org/1999/xlink" x="0px"
	 y="0px" viewBox="0 0 512 512" style="enable-background:new 0 0 512 512;" xml:space="preserve">
<style type="text/css">
	.st0{fill:#FFFFFF;}
	.st1{fill:#265787;}
	.st2{fill:#EA7600;}
</style>
<g transform="matrix(.281 0 0 .281 -41.8 -43.7)">
	<g transform="matrix(21.6 0 0 21.6 -4857 7665)">
		<path class="st0" d="M263.7-301.1c0.3-5.3,2.9-10,6.8-13.3c3.8-3.2,9-5.2,14.6-5.2c5.6,0,10.8,2,14.6,5.2c3.9,3.3,6.5,8,6.8,13.3
			c0.3,5.4-1.9,10.5-5.7,14.3c-3.9,3.8-9.5,6.2-15.7,6.2c-6.2,0-11.8-2.4-15.7-6.2C265.6-290.6,263.4-295.7,263.7-301.1L263.7-301.1
			z"/>
	</g>
	<g transform="matrix(11.1 0 0 11.1 -2215 4153)">
		<path class="st1" d="M297.9-270.8c0.3-5.3,2.9-10,6.8-13.3c3.8-3.2,9-5.2,14.6-5.2c5.6,0,10.8,2,14.6,5.2c3.9,3.3,6.5,8,6.8,13.3
			c0.3,5.4-1.9,10.5-5.7,14.3c-3.9,3.8-9.5,6.2-15.7,6.2c-6.2,0-11.8-2.4-15.7-6.2C299.8-260.3,297.6-265.4,297.9-270.8L297.9-270.8
			z"/>
		<path class="st2" d="M264.3-259.6c0,2.1,0.7,6.1,1.7,9.2c2.1,6.7,5.6,12.8,10.5,18.2c5,5.6,11.3,10.1,18.4,13.2
			c7.5,3.3,15.7,5,24.2,5c8.5,0,16.7-1.7,24.2-5.1c7.2-3.2,13.4-7.7,18.4-13.3c4.9-5.5,8.5-11.6,10.5-18.3c1.1-3.4,1.7-6.8,2-10.2
			c0.3-3.4,0.2-6.7-0.3-10.1c-0.9-6.6-3.2-12.8-6.7-18.4c-3.2-5.2-7.3-9.7-12.3-13.5l0,0l-49.6-38.1c0,0-0.1-0.1-0.1-0.1
			c-3.2-2.5-8.7-2.5-12.3,0c-3.6,2.5-4,6.7-0.8,9.4l0,0l20.7,16.8l-63,0.1h-0.1c-5.2,0-10.2,3.4-11.2,7.8c-1,4.4,2.5,8.1,8,8.1l0,0
			l31.9-0.1l-57.1,43.7c-0.1,0.1-0.2,0.1-0.2,0.2c-5.4,4.1-7.1,11-3.7,15.3c3.4,4.4,10.8,4.4,16.2,0l31.1-25.5c0,0-0.5,3.4-0.4,5.5
			L264.3-259.6z M344.4-248.1c-6.4,6.5-15.4,10.2-25.1,10.2c-9.7,0-18.7-3.6-25.1-10.2c-3.1-3.2-5.4-6.8-6.9-10.7
			c-1.4-3.8-1.9-7.9-1.6-12c0.3-4,1.5-7.8,3.4-11.3c1.9-3.4,4.5-6.5,7.6-9.1c6.2-5.1,14.2-7.8,22.5-7.8c8.3,0,16.2,2.7,22.5,7.8
			c3.2,2.6,5.7,5.7,7.6,9c1.9,3.4,3.1,7.3,3.4,11.3c0.4,4.1-0.2,8.1-1.6,12C349.8-254.9,347.5-251.3,344.4-248.1L344.4-248.1z"/>
	</g>
</g>
</svg>
