<?xml version="1.0" encoding="utf-8"?>
<!-- Generator: Adobe Illustrator 26.5.0, SVG Export Plug-In . SVG Version: 6.00 Build 0)  -->
<svg version="1.1" id="레이어_1" xmlns="http://www.w3.org/2000/svg" xmlns:xlink="http://www.w3.org/1999/xlink" x="0px"
	 y="0px" viewBox="0 0 512 512" style="enable-background:new 0 0 512 512;" xml:space="preserve">
<style type="text/css">
	.st0{fill:#E5CE17;}
</style>
<rect class="st0" width="512" height="512"/>
<path d="M278.6,399.3c0,49.8-29.3,72.6-71.9,72.6c-38.5,0-60.8-19.9-72.2-44l39.2-23.7c7.5,13.4,14.4,24.7,31,24.7
	c15.8,0,25.8-6.2,25.8-30.3V235.1h48.1L278.6,399.3L278.6,399.3z"/>
<path d="M392.5,471.9c-44.7,0-73.6-21.3-87.7-49.1l39.2-22.6c10.3,16.8,23.8,29.3,47.4,29.3c19.9,0,32.7-9.9,32.7-23.8
	c0-16.5-13-22.3-35.1-32l-12-5.1c-34.7-14.7-57.7-33.4-57.7-72.6c0-36.1,27.5-63.5,70.4-63.5c30.6,0,52.6,10.6,68.3,38.5l-37.5,24
	c-8.2-14.7-17.1-20.6-31-20.6c-14.1,0-23,8.9-23,20.6c0,14.4,8.9,20.2,29.6,29.3l12,5.1c40.9,17.5,63.9,35.4,63.9,75.7
	C472.1,448.1,438.1,471.9,392.5,471.9L392.5,471.9z"/>
</svg>
