<?xml version="1.0" encoding="utf-8"?>
<!-- Generator: Adobe Illustrator 26.2.1, SVG Export Plug-In . SVG Version: 6.00 Build 0)  -->
<svg version="1.1" id="레이어_1" xmlns="http://www.w3.org/2000/svg" xmlns:xlink="http://www.w3.org/1999/xlink" x="0px"
	 y="0px" viewBox="0 0 512 512" style="enable-background:new 0 0 512 512;" xml:space="preserve">
<style type="text/css">
	.st0{fill:url(#SVGID_1_);}
</style>
<radialGradient id="SVGID_1_" cx="-695.147" cy="818.2979" r="13.3825" gradientTransform="matrix(0 38.301 44.1228 0 -35849.5547 26624.2266)" gradientUnits="userSpaceOnUse">
	<stop  offset="0" style="stop-color:#20C6B7"/>
	<stop  offset="1" style="stop-color:#4D9ABF"/>
</radialGradient>
<path class="st0" d="M371.1,177.6l-0.2-0.1c-0.1,0-0.2-0.1-0.3-0.2c-0.3-0.3-0.4-0.8-0.4-1.2l10.3-63.2l48.5,48.5l-50.4,21.4
	c-0.1,0.1-0.3,0.1-0.4,0.1h-0.2c-0.1,0-0.1-0.1-0.3-0.2C375.8,180.6,373.6,178.9,371.1,177.6z M441.4,173.7l51.8,51.8
	c10.8,10.8,16.1,16.1,18.1,22.4c0.3,0.9,0.5,1.8,0.7,2.8l-123.8-52.4c-0.1,0-0.1-0.1-0.2-0.1c-0.5-0.2-1.1-0.4-1.1-0.9
	s0.6-0.7,1.1-0.9l0.2-0.1L441.4,173.7z M509.9,267.4c-2.7,5-7.9,10.2-16.7,19.1l-58.4,58.4l-75.6-15.7l-0.4-0.1
	c-0.7-0.1-1.4-0.2-1.4-0.8c-0.6-6.3-3.8-12.1-8.8-15.9c-0.3-0.3-0.2-0.8-0.1-1.2c0-0.1,0-0.1,0-0.2l14.2-87.2l0.1-0.3
	c0.1-0.7,0.2-1.4,0.8-1.4c6.2-0.8,11.7-4,15.5-8.9c0.1-0.1,0.2-0.3,0.4-0.4c0.4-0.2,0.9,0,1.4,0.2L509.9,267.4L509.9,267.4z
	 M421.3,358.3l-96.1,96.1l16.4-101.1l0-0.1c0-0.1,0-0.3,0.1-0.4c0.1-0.3,0.5-0.5,0.8-0.6l0.2-0.1c3.6-1.5,6.8-3.9,9.3-6.9
	c0.3-0.4,0.7-0.7,1.2-0.8c0.1,0,0.3,0,0.4,0L421.3,358.3L421.3,358.3z M304.9,474.7l-10.8,10.8l-119.7-173c0-0.1-0.1-0.1-0.1-0.2
	c-0.2-0.3-0.4-0.5-0.3-0.8c0-0.2,0.1-0.4,0.3-0.6l0.1-0.2c0.4-0.5,0.7-1.1,1-1.6l0.3-0.5l0,0c0.2-0.3,0.4-0.6,0.7-0.8
	c0.3-0.1,0.7-0.1,1,0l132.6,27.4c0.4,0.1,0.7,0.2,1,0.4c0.2,0.2,0.2,0.4,0.3,0.6c1.9,7.1,7,12.9,13.7,15.7c0.4,0.2,0.2,0.6,0,1
	c-0.1,0.2-0.2,0.4-0.2,0.6C323.1,363.7,308.8,451.1,304.9,474.7z M282.3,497.3c-8,7.9-12.7,12.1-18,13.8c-5.2,1.7-10.9,1.7-16.1,0
	c-6.2-2-11.6-7.4-22.4-18.1L105.6,372.7L137,324c0.1-0.2,0.3-0.5,0.5-0.6c0.3-0.2,0.8-0.1,1.2,0c7.2,2.2,14.9,1.8,21.9-1.1
	c0.4-0.1,0.7-0.2,1,0c0.1,0.1,0.3,0.3,0.4,0.4L282.3,497.3L282.3,497.3z M94,361.1l-27.6-27.6l54.5-23.2c0.1-0.1,0.3-0.1,0.4-0.1
	c0.5,0,0.7,0.5,1,0.9c0.5,0.8,1.1,1.7,1.7,2.5l0.2,0.2c0.2,0.2,0.1,0.5-0.1,0.7L94,361.1L94,361.1z M54.2,321.3l-34.9-34.9
	c-5.9-5.9-10.2-10.2-13.2-13.9l106.1,22c0.1,0,0.3,0,0.4,0.1c0.7,0.1,1.4,0.2,1.4,0.8c0,0.7-0.8,1-1.5,1.2l-0.3,0.1L54.2,321.3z
	 M0,254.5c0.1-2.2,0.5-4.5,1.2-6.6c2-6.2,7.4-11.6,18.1-22.4L64,180.9c20.6,29.8,41.2,59.6,61.8,89.4c0.4,0.5,0.8,1,0.3,1.4
	c-2,2.2-3.9,4.5-5.3,7.1c-0.1,0.3-0.4,0.6-0.7,0.8c-0.2,0.1-0.4,0.1-0.6,0h0L0,254.5L0,254.5z M75.9,169l60-60
	c5.7,2.5,26.2,11.1,44.6,18.9c13.9,5.9,26.6,11.2,30.6,13c0.4,0.2,0.8,0.3,0.9,0.7c0.1,0.2,0.1,0.5,0,0.8c-1.9,8.8,0.7,18,7,24.4
	c0.4,0.4,0,1-0.3,1.5l-0.2,0.3l-61,94.4c-0.2,0.3-0.3,0.5-0.6,0.7c-0.3,0.2-0.8,0.1-1.1,0c-2.4-0.6-4.8-1-7.3-1
	c-2.2,0-4.6,0.4-7,0.8h0c-0.3,0-0.5,0.1-0.7-0.1c-0.2-0.2-0.4-0.4-0.6-0.7L75.9,169L75.9,169z M148.1,96.8l77.7-77.7
	C236.6,8.3,242,2.9,248.2,1c5.2-1.7,10.9-1.7,16.1,0c6.2,2,11.6,7.4,22.4,18.1l16.8,16.8l-55.3,85.6c-0.1,0.2-0.3,0.5-0.5,0.6
	c-0.3,0.2-0.8,0.1-1.2,0c-8.8-2.7-18.5-0.8-25.7,4.9c-0.4,0.4-0.9,0.2-1.4,0C212.3,123.9,156.1,100.2,148.1,96.8z M315.3,47.7l51,51
	L354,174.9v0.2c0,0.2,0,0.3-0.1,0.5c-0.1,0.3-0.4,0.3-0.7,0.4c-2.6,0.8-5.1,2-7.3,3.6c-0.1,0.1-0.2,0.1-0.3,0.2
	c-0.1,0.2-0.3,0.3-0.5,0.3c-0.2,0-0.4,0-0.6-0.1l-77.8-33l-0.1-0.1c-0.5-0.2-1.1-0.4-1.1-0.9c-0.5-4.3-1.9-8.5-4.1-12.2
	c-0.4-0.6-0.8-1.3-0.5-1.9L315.3,47.7z M262.7,162.7l72.9,30.9c0.4,0.2,0.8,0.4,1,0.8c0.1,0.2,0.1,0.5,0,0.8
	c-0.2,1.1-0.4,2.3-0.4,3.5v2c0,0.5-0.5,0.7-1,0.9l-0.1,0.1c-11.5,4.9-162.2,69.2-162.4,69.2c-0.2,0-0.5,0-0.7-0.2
	c-0.4-0.4,0-1,0.4-1.5c0.1-0.1,0.1-0.2,0.2-0.3l59.9-92.8l0.1-0.2c0.3-0.6,0.7-1.2,1.4-1.2l0.6,0.1c1.4,0.2,2.6,0.4,3.8,0.4
	c9.1,0,17.5-4.4,22.6-12c0.1-0.2,0.3-0.4,0.5-0.5C261.8,162.4,262.3,162.5,262.7,162.7z M179.2,285.5l164.2-70c0,0,0.2,0,0.5,0.2
	c0.9,0.9,1.7,1.5,2.4,2.1l0.4,0.2c0.3,0.2,0.7,0.4,0.7,0.7c0,0.1,0,0.2,0,0.3l-14.1,86.4l-0.1,0.3c-0.1,0.7-0.2,1.4-0.8,1.4
	c-7.6,0.5-14.5,4.8-18.4,11.3l-0.1,0.1c-0.2,0.3-0.4,0.6-0.7,0.8c-0.3,0.1-0.6,0.1-0.9,0l-130.9-27
	C181.3,292.4,179.4,285.5,179.2,285.5z"/>
</svg>
