<?xml version="1.0" encoding="utf-8"?>
<!-- Generator: Adobe Illustrator 26.5.0, SVG Export Plug-In . SVG Version: 6.00 Build 0)  -->
<svg version="1.1" id="레이어_1" xmlns="http://www.w3.org/2000/svg" xmlns:xlink="http://www.w3.org/1999/xlink" x="0px"
	 y="0px" viewBox="0 0 512 512" style="enable-background:new 0 0 512 512;" xml:space="preserve">
<g id="Page-1">
	<g id="Black-Next.js" transform="translate(-247.000000, -138.000000)">
		<g id="next-black" transform="translate(247.000000, 138.000000)">
			<g id="EXT-_x2B_-Type-something">
				<path id="EXT" d="M122.3,183.3h95.5v7.5h-86.7v56.8h81.6v7.5h-81.6v62.4h87.7v7.5h-96.5L122.3,183.3L122.3,183.3z M226.3,183.3
					h10.2l45,62.4l46-62.4L390,104L287.2,252.3l52.9,73h-10.5l-48.2-66.4l-48.3,66.4h-10.4l53.3-73L226.3,183.3z M344,190.8v-7.5
					h108.8v7.5h-50.1v134.4h-8.8V190.8H344z"/>
				<polygon id="Type-something" points="2.8,183.3 13.8,183.3 164.6,408 102.3,325.2 12,194 11.6,325.2 2.8,325.2 				"/>
			</g>
			<path id="_x2E_JS" d="M451.9,315.4c1.8,0,3.2-1.4,3.2-3.2c0-1.8-1.3-3.2-3.2-3.2c-1.8,0-3.2,1.4-3.2,3.2
				C448.8,314,450.1,315.4,451.9,315.4z M460.5,307.1c0,5.3,3.8,8.7,9.4,8.7c5.9,0,9.5-3.6,9.5-9.7v-21.6h-4.8V306
				c0,3.4-1.7,5.3-4.8,5.3c-2.8,0-4.5-1.7-4.6-4.2H460.5z M485.6,306.8c0.3,5.5,4.9,9,11.8,9c7.3,0,11.8-3.6,11.8-9.6
				c0-4.6-2.6-7.1-8.9-8.6l-3.4-0.8c-4-1-5.6-2.2-5.6-4.4c0-2.8,2.5-4.5,6.2-4.5c3.6,0,6.1,1.8,6.5,4.6h4.6
				c-0.2-5.2-4.9-8.8-11.1-8.8c-6.7,0-11.2,3.6-11.2,9.1c0,4.5,2.5,7.1,8.1,8.4l4,1c4.1,1,5.8,2.4,5.8,4.7c0,2.8-2.8,4.7-6.6,4.7
				c-4.1,0-7-1.9-7.4-4.8L485.6,306.8L485.6,306.8z"/>
		</g>
	</g>
</g>
</svg>
