<?xml version="1.0" encoding="utf-8"?>
<!-- Generator: Adobe Illustrator 27.3.1, SVG Export Plug-In . SVG Version: 6.00 Build 0)  -->
<svg version="1.1" id="레이어_1" xmlns="http://www.w3.org/2000/svg" xmlns:xlink="http://www.w3.org/1999/xlink" x="0px"
	 y="0px" viewBox="0 0 512 512" style="enable-background:new 0 0 512 512;" xml:space="preserve">
<style type="text/css">
	.st0{fill:#002C4B;}
	.st1{fill-rule:evenodd;clip-rule:evenodd;fill:#FFD94C;}
	.st2{fill-rule:evenodd;clip-rule:evenodd;fill:#FF4154;}
</style>
<g>
	<g>
		<path class="st0" d="M405,165.3c8.3-40.4,10.1-71.3,4.7-93.8c-3.2-13.4-9.1-24.3-18-32.2C382.3,31,370.4,27,357.1,27
			c-22,0-45.2,10-70,29.1c-10.1,7.8-20.6,17.2-31.5,28.1c-0.9-1.1-1.8-2.2-2.9-3.1c-30.8-27.4-56.7-44.4-78.8-51
			c-13.2-3.9-25.5-4.3-36.8-0.5c-11.9,4-21.4,12.3-28.1,23.8c-11,19.1-13.9,44.2-9.8,75.2c1.7,12.6,4.5,26.4,8.6,41.3
			c-1.5,0.2-3.1,0.5-4.6,1c-39,12.9-66.7,26.8-83.4,42.7c-10,9.5-16.5,20-18.8,31.6c-2.5,12.3-0.1,24.6,6.6,36.2
			c11,19.1,31.3,34.1,60.1,46c11.6,4.8,24.7,9.1,39.3,13c-0.7,1.5-1.2,3.1-1.5,4.8c-8.3,40.4-10.1,71.3-4.7,93.8
			c3.2,13.4,9.1,24.3,18,32.2c9.4,8.3,21.3,12.4,34.7,12.4c22,0,45.2-10,70-29.1c10.2-7.9,20.8-17.4,31.8-28.5
			c1.1,1.8,2.5,3.4,4.2,4.9c30.8,27.4,56.7,44.4,78.8,51c13.2,3.9,25.5,4.3,36.8,0.5c11.9-4,21.4-12.3,28.1-23.8
			c11-19.1,13.9-44.2,9.8-75.2c-1.7-13.1-4.8-27.4-9-42.9c1.7-0.2,3.4-0.5,5-1.1c39-12.9,66.7-26.8,83.4-42.7
			c10-9.5,16.5-20,18.8-31.6c2.5-12.3,0.1-24.6-6.6-36.2c-11-19.1-31.3-34.1-60.1-46c-11.9-4.9-25.5-9.4-40.6-13.4
			C404.2,168.1,404.7,166.8,405,165.3z"/>
		<path class="st1" d="M216.6,172.5h78.7c4.8,0,9.3,2.6,11.7,6.8l39.4,68.7c2.4,4.2,2.4,9.3,0,13.4l-39.4,68.7
			c-2.4,4.2-6.9,6.8-11.7,6.8h-78.7c-4.8,0-9.3-2.6-11.7-6.8l-39.4-68.7c-2.4-4.2-2.4-9.3,0-13.4l39.4-68.7
			C207.4,175,211.8,172.5,216.6,172.5z M285.6,189.4c4.8,0,9.3,2.6,11.7,6.8L327,248c2.4,4.1,2.4,9.2,0,13.4l-29.7,51.8
			c-2.4,4.2-6.9,6.8-11.7,6.8h-59.2c-4.8,0-9.3-2.6-11.7-6.8L185,261.4c-2.4-4.1-2.4-9.2,0-13.4l29.7-51.8c2.4-4.2,6.9-6.8,11.7-6.8
			H285.6z M275.1,207.9h-38.1c-4.8,0-9.3,2.6-11.7,6.8l0,0l-19.1,33.3c-2.4,4.2-2.4,9.3,0,13.4l0,0l19.1,33.3
			c2.4,4.2,6.9,6.8,11.7,6.8l0,0h38.1c4.8,0,9.3-2.6,11.7-6.8l0,0l19.1-33.3c2.4-4.2,2.4-9.3,0-13.4l0,0l-19.1-33.3
			C284.4,210.5,279.9,207.9,275.1,207.9L275.1,207.9z M264.9,225.6c4.8,0,9.3,2.6,11.7,6.8l9,15.6c2.4,4.2,2.4,9.3,0,13.4l-9,15.6
			c-2.4,4.2-6.9,6.8-11.7,6.8h-17.9c-4.8,0-9.3-2.6-11.7-6.8l-9-15.6c-2.4-4.2-2.4-9.3,0-13.4l9-15.6c2.4-4.2,6.9-6.8,11.7-6.8
			H264.9z M256,243c-4.2,0-8,2.2-10.1,5.8c-2.1,3.6-2.1,8,0,11.6c2.1,3.6,5.9,5.8,10.1,5.8l0,0c4.2,0,8-2.2,10.1-5.8
			c2.1-3.6,2.1-8,0-11.6C264,245.2,260.2,243,256,243L256,243z M161.7,254.7h20.9"/>
		<path class="st2" d="M147.8,292c3.5-2,8-0.8,10,2.8l0,0l1.3,2.3c10.3,18.2,20.9,35.4,32,51.7c13.1,19.3,27.9,38.8,44.3,58.5
			c2.6,3.1,2.2,7.7-0.8,10.4l0,0l-1.6,1.4c-54.2,47.3-89.4,56.8-105.7,28.4c-15.9-27.8-10.1-78.4,17.3-151.7
			C145.2,294.2,146.3,292.9,147.8,292z M378.7,347.7c3.9-0.7,7.7,1.9,8.4,5.8l0,0l0.4,2.1c13.4,70.1,4,105.1-28.3,105.1
			c-31.5,0-71.7-29.9-120.5-89.7c-1.1-1.3-1.7-3-1.7-4.7c0-4,3.3-7.3,7.4-7.3l0,0l2.6,0c20.5,0.1,40.5-0.6,59.9-2.1
			C329.9,355.2,353.8,352.1,378.7,347.7z M397.2,198.9c1.4-3.8,5.7-5.8,9.6-4.5l0,0l2.1,0.7c69.6,23.7,96.1,49.8,79.4,78.2
			c-16.4,27.8-63.9,48-142.7,60.7c-1.7,0.3-3.5,0-5.1-0.9c-3.6-2.1-4.8-6.6-2.7-10.2l0,0l1.3-2.3c10.7-18,20.5-36,29.1-53.9
			C378.6,245.7,388.2,223.1,397.2,198.9z M166.4,178c1.7-0.3,3.5,0,5.1,0.9c3.6,2.1,4.8,6.6,2.7,10.2l0,0l-1.3,2.3
			c-10.7,18-20.5,36-29.1,53.9c-10.2,21.1-19.9,43.7-28.9,67.9c-1.4,3.8-5.7,5.8-9.6,4.5l0,0l-2.1-0.7
			C33.5,293.1,7,267.1,23.7,238.7C40.1,210.9,87.6,190.6,166.4,178z M279,92.9c54.2-47.3,89.4-56.8,105.7-28.4
			c15.9,27.8,10.1,78.4-17.3,151.7c-0.6,1.6-1.8,3-3.3,3.8c-3.5,2-8,0.8-10-2.8l0,0l-1.3-2.3c-10.3-18.2-20.9-35.4-32-51.7
			c-13.1-19.3-27.9-38.8-44.3-58.5c-2.6-3.1-2.2-7.7,0.8-10.4l0,0L279,92.9z M155.4,48.5c31.5,0,71.7,29.9,120.5,89.7
			c1.1,1.3,1.7,3,1.7,4.7c0,4-3.3,7.3-7.4,7.3l0,0l-2.6,0c-20.5-0.1-40.5,0.6-59.9,2.1c-22.9,1.8-46.8,4.9-71.7,9.3
			c-3.9,0.7-7.7-1.9-8.4-5.8l0,0l-0.4-2.1C113.8,83.5,123.2,48.5,155.4,48.5z"/>
	</g>
</g>
</svg>
