<?xml version="1.0" encoding="utf-8"?>
<!-- Generator: Adobe Illustrator 26.5.0, SVG Export Plug-In . SVG Version: 6.00 Build 0)  -->
<svg version="1.1" id="레이어_1" xmlns="http://www.w3.org/2000/svg" xmlns:xlink="http://www.w3.org/1999/xlink" x="0px"
	 y="0px" viewBox="0 0 512 512" style="enable-background:new 0 0 512 512;" xml:space="preserve">
<style type="text/css">
	.st0{fill:#4EC3E9;}
	.st1{fill:none;}
	.st2{font-family:'AppleSDGothicNeo-SemiBold-KSCpc-EUC-H';}
	.st3{font-size:83.6231px;}
</style>
<path class="st0" d="M415.3,142.6c-5.3-1.7-10.6-3.5-16-5c0.9-3.6,1.6-7.3,2.5-10.9C413.9,68.2,406,21.1,379.2,5.6
	c-25.8-14.9-68,0.5-110.6,37.7c-4.2,3.6-8.4,7.5-12.3,11.3c-2.6-2.6-5.4-5.1-8.1-7.6C203.5,7.4,158.7-9.4,131.9,6.3
	c-25.7,15-33.4,59.2-22.6,114.7c1.1,5.5,2.3,10.9,3.6,16.4c-6.3,1.7-12.5,3.7-18.2,5.8c-52.5,18.1-90,46.8-90,76.6
	c0,30.6,40.1,61.4,94.6,80c4.5,1.5,8.8,2.9,13.4,4.2c-1.5,5.9-2.7,11.7-3.9,17.7c-10.3,54.5-2.3,97.7,23.5,112.5
	c26.5,15.3,71.1-0.4,114.5-38.4c3.5-3,6.8-6.2,10.3-9.6c4.3,4.2,8.8,8.3,13.4,12.2c42,36.2,83.6,50.8,109.3,35.9
	c26.5-15.3,35.2-61.8,24-118.4c-0.9-4.3-1.8-8.7-2.9-13.2c3.1-0.9,6.2-1.8,9.2-2.8c56.7-18.8,97.7-49.1,97.7-80.3
	C507.4,189.8,468.8,161,415.3,142.6L415.3,142.6z M282.4,59.3C318.9,27.4,353,15,368.5,23.9c16.6,9.6,23,48,12.6,98.6
	c-0.7,3.4-1.4,6.6-2.3,9.8c-21.8-4.9-43.9-8.5-66.1-10.4c-12.8-18.2-26.7-35.7-41.8-52.1C274.8,66.1,278.5,62.6,282.4,59.3z
	 M168.8,270.6c5,8.6,10.1,17.1,15.5,25.4c-15.3-1.6-30.5-4.1-45.6-7.4c4.3-14.1,9.8-28.8,16-43.7
	C159.2,253.6,163.9,262.1,168.8,270.6L168.8,270.6z M139,152.4c14.1-3.1,29.2-5.6,44.7-7.7c-5.2,8.1-10.3,16.5-15.1,25
	c-4.8,8.4-9.6,16.9-13.9,25.5C148.6,180.6,143.4,166.2,139,152.4L139,152.4z M166,220.1c6.5-13.6,13.6-26.8,21.1-39.9
	s15.5-25.7,24-38.2c14.8-1.1,29.8-1.6,45.1-1.6s30.4,0.5,45.1,1.6c8.4,12.4,16.3,25.1,23.9,38c7.6,12.9,14.7,26.2,21.3,39.6
	c-6.6,13.6-13.7,26.9-21.2,40.1c-7.5,13-15.4,25.7-23.8,38.3c-14.7,1.1-29.9,1.5-45.3,1.5s-30.3-0.5-44.7-1.4
	c-8.6-12.5-16.6-25.2-24.1-38.3C179.4,246.9,172.5,233.7,166,220.1L166,220.1z M343.3,270.4c5-8.7,9.8-17.4,14.3-26.2
	c6.3,14.2,11.8,28.7,16.6,43.5c-15.2,3.5-30.6,6.1-46.2,7.8C333.4,287.3,338.4,278.9,343.3,270.4L343.3,270.4z M357.4,195.2
	c-4.7-8.7-9.3-17.3-14.2-25.7c-4.8-8.4-9.8-16.6-15-24.8c15.7,2,31,4.7,45.1,7.9C368.7,167.1,363.4,181.3,357.4,195.2z M256.2,84.8
	c10.3,11.2,20,23,29.1,35.2c-19.4-0.9-39-0.9-58.4,0C236.5,107.3,246.3,95.4,256.2,84.8z M142.3,24.5c16.5-9.7,53.1,4.1,91.8,38.3
	c2.5,2.2,4.9,4.6,7.5,6.8c-15.2,16.4-29.3,33.9-42.1,52.1c-22.2,2-44.2,5.4-66,10.2c-1.3-5-2.4-10.1-3.5-15.2
	C120.7,69.4,126.8,33.5,142.3,24.5L142.3,24.5z M118.2,283.4c-4.1-1.2-8.1-2.5-12.2-3.8c-21-6.6-44.6-16.9-61.9-30.6
	c-9.9-6.8-16.6-17.5-18.5-29.3c0-17.9,31.1-40.9,75.8-56.6c5.6-2,11.3-3.7,16.9-5.4c6.6,21.3,14.8,42.2,24.1,62.4
	C133.2,240.6,125,261.8,118.2,283.4z M232.8,379.7c-16.2,14.9-35,26.6-55.4,34.6c-10.9,5.2-23.5,5.6-34.6,1.3
	c-15.6-9-22-43.7-13.2-90.4c1.1-5.5,2.3-11,3.6-16.4c22,4.7,44.2,7.9,66.7,9.7c12.9,18.4,27.3,35.9,42.5,52.5
	C239.1,374,235.9,376.9,232.8,379.7L232.8,379.7z M256.8,355.9c-10-10.8-20-22.8-29.8-35.6c9.4,0.4,19.1,0.5,29,0.5
	c10.1,0,20-0.2,29.9-0.7C276.9,332.5,267.1,344.4,256.8,355.9z M385.1,385.3c-0.9,11.9-6.7,23.1-16.2,30.7
	c-15.6,9-48.9-2.7-84.8-33.6c-4.1-3.6-8.3-7.4-12.5-11.3c15-16.6,28.9-34.2,41.5-52.7c22.5-1.8,44.9-5.3,67-10.3c1,4,1.8,8,2.6,11.9
	C387.5,341.4,388.3,363.5,385.1,385.3L385.1,385.3z M403,279.7c-2.7,0.9-5.5,1.7-8.4,2.6c-6.8-21.4-15.3-42.4-25.1-62.7
	c9.4-20,17.4-40.6,24.1-61.8c5.1,1.5,10,3,14.8,4.7c45.7,15.7,77.9,39.1,77.9,57C486.3,238.7,452,263.5,403,279.7z M256,265
	c24.9,0,45-20.1,45-45s-20.1-45-45-45s-45,20.1-45,45S231.1,265,256,265L256,265z"/>
<rect x="-22" y="443" class="st1" width="556" height="123.5"/>
<text transform="matrix(1 0 0 1 29.1367 509.8027)" class="st0 st2 st3">React Native</text>
</svg>
