<?xml version="1.0" encoding="utf-8"?>
<!-- Generator: Adobe Illustrator 25.4.1, SVG Export Plug-In . SVG Version: 6.00 Build 0)  -->
<svg version="1.1" id="레이어_1" xmlns="http://www.w3.org/2000/svg" xmlns:xlink="http://www.w3.org/1999/xlink" x="0px"
	 y="0px" viewBox="0 0 512 512" style="enable-background:new 0 0 512 512;" xml:space="preserve">
<style type="text/css">
	.st0{fill:#5C2EA4;}
</style>
<g>
	<path class="st0" d="M355.2,348.7c18.8-1.9,33.1-18.2,32.5-37.7s-16.9-35.1-36.4-35.1H350c-20.1,0.6-35.7,17.5-35.1,37.7
		c0.6,9.7,4.5,18.2,10.4,24c-22.1,43.5-55.9,75.4-106.5,102c-34.4,18.2-70.2,24.7-105.9,20.1c-29.2-3.9-52-16.9-66.3-38.3
		c-20.8-31.8-22.7-66.3-5.2-100.7c12.3-24.7,31.8-42.9,44.2-52c-2.6-8.4-6.5-22.7-8.4-33.1c-94.2,68.2-84.5,160.5-55.9,204
		c21.4,32.5,65,52.6,113,52.6c13,0,26-1.3,39-4.5C256.5,471.4,319.5,422.1,355.2,348.7z M469.6,268.1
		c-49.4-57.8-122.1-89.7-205.3-89.7h-10.4c-5.8-11.7-18.2-19.5-31.8-19.5h-1.3c-20.1,0.6-35.7,17.5-35.1,37.7
		c0.6,19.5,16.9,35.1,36.4,35.1h1.3c14.3-0.6,26.6-9.7,31.8-22.1h11.7c49.4,0,96.1,14.3,138.4,42.2c32.5,21.4,55.9,49.4,68.9,83.2
		c11,27.3,10.4,53.9-1.3,76.7c-18.2,34.4-48.7,53.3-89,53.3c-26,0-50.7-7.8-63.7-13.6c-7.1,6.5-20.1,16.9-29.2,23.4
		c27.9,13,56.5,20.1,83.8,20.1c62.4,0,108.5-34.4,126-68.9C519.6,388.3,518.3,323.3,469.6,268.1z M139.5,359.7
		c0.6,19.5,16.9,35.1,36.4,35.1h1.3c20.1-0.6,35.7-17.5,35.1-37.7c-0.6-19.5-16.9-35.1-36.4-35.1h-1.3c-1.3,0-3.2,0-4.5,0.6
		c-26.6-44.2-37.7-92.3-33.8-144.2c2.6-39,15.6-72.8,38.3-100.7c18.8-24,55.2-35.7,79.9-36.4c68.9-1.3,98.1,84.5,100,118.9
		c8.4,1.9,22.7,6.5,32.5,9.7C379.3,64.7,314.3,10.2,251.9,10.2c-58.5,0-112.4,42.2-133.8,104.6c-29.9,83.2-10.4,163.1,26,226.1
		C140.8,345.4,138.9,352.6,139.5,359.7z"/>
</g>
</svg>
