<?xml version="1.0" encoding="utf-8"?>
<!-- Generator: Adobe Illustrator 26.5.0, SVG Export Plug-In . SVG Version: 6.00 Build 0)  -->
<svg version="1.1" id="레이어_1" xmlns="http://www.w3.org/2000/svg" xmlns:xlink="http://www.w3.org/1999/xlink" x="0px"
	 y="0px" viewBox="0 0 512 512" style="enable-background:new 0 0 512 512;" xml:space="preserve">
<style type="text/css">
	.st0{fill:#B34A7E;}
</style>
<path class="st0" d="M241.5,354.3C241.2,354.8,241,355.2,241.5,354.3z M440.7,284.7c-16.1,0-32,3.7-46.4,10.8
	c-4.7-9.5-9.6-17.8-10.4-24.1c-1-7.3-2-11.6-0.9-20.2c1.1-8.6,6.2-20.9,6.1-21.7c-0.1-0.9-1.1-5.3-11.4-5.4s-19.2,2-20.2,4.7
	c-1.8,5-3.3,10.1-4.2,15.3c-1.8,9.4-20.6,42.8-31.3,60.2c-3.5-6.8-6.5-12.8-7.1-17.6c-1-7.3-2-11.6-0.9-20.2
	c1.1-8.6,6.2-20.9,6.1-21.7c-0.1-0.9-1.1-5.3-11.4-5.4s-19.2,2-20.2,4.7c-1,2.7-2.2,9.1-4.2,15.3c-2.1,6.2-27.1,61.8-33.7,76.3
	c-3.4,7.4-6.2,13.3-8.3,17.3c-0.3,0.6-0.6,1-0.7,1.4c0.2-0.4,0.4-0.8,0.4-0.6c-1.8,3.4-2.8,5.4-2.8,5.4v0.1
	c-1.4,2.6-2.9,4.9-3.6,4.9c-0.5,0-1.5-6.7,0.2-15.9c3.8-19.4,12.6-49.4,12.6-50.5c-0.1-0.6,1.7-5.8-5.8-8.6
	c-7.3-2.6-9.9,1.8-10.6,1.8s-1.1,1.6-1.1,1.6s8.1-33.9-15.5-33.9c-14.7,0-35.2,16.2-45.3,30.8c-6.3,3.4-20,10.9-34.4,18.8
	c-5.5,3-11.2,6.2-16.6,9.1c-0.4-0.4-0.7-0.8-1.1-1.2c-28.6-30.5-81.5-52.1-79.2-93.2c0.8-15,6-54.2,101.6-101.9
	c78.4-39,141.1-28.3,151.8-4.5c15.5,34-33.5,97.2-114.9,106.3c-31,3.4-47.3-8.6-51.4-13c-4.2-4.7-4.9-5-6.5-4.1
	c-2.6,1.4-1,5.6,0,8.1c2.4,6.3,12.4,17.5,29.4,23.1c15,4.9,51.3,7.6,95.3-9.4c49.4-19,87.9-72,76.6-116.4
	c-11.4-45.1-86.2-59.9-156.9-34.8c-42.1,15-87.7,38.5-120.5,69.1C4.3,181.8-1.9,213.5,0.6,226.8c9.1,47.1,74,77.8,100,100.5
	c-1.3,0.7-2.5,1.4-3.6,2c-13,6.5-62.5,32.4-74.9,59.7c-14,31,2.3,53.3,13,56.3c33.4,9.3,67.6-7.4,86-34.9
	c18.4-27.4,16.2-63.2,7.7-79.6c-0.1-0.2-0.2-0.4-0.3-0.6c3.4-2,6.8-4,10.2-6c6.6-3.9,13.1-7.5,18.8-10.6c-3.2,8.6-5.5,19-6.7,34.1
	c-1.4,17.6,5.8,40.4,15.3,49.3c4.2,3.9,9.2,4,12.3,4c11,0,16-9.1,21.5-20c6.8-13.3,12.8-28.7,12.8-28.7s-7.5,41.7,13,41.7
	c7.5,0,15-9.7,18.4-14.6v0.1c0,0,0.2-0.3,0.6-1c0.8-1.2,1.2-1.9,1.2-1.9v-0.2c3-5.2,9.7-17.1,19.7-36.8c13-25.4,25.3-57.2,25.3-57.2
	c1.2,7,2.9,13.8,5,20.6c2.2,7.6,7,15.9,10.7,24c-3,4.2-4.9,6.6-4.9,6.6c0,0.1,0,0.1,0.1,0.2c-2.4,3.2-5.1,6.6-7.9,10
	c-10.2,12.2-22.4,26.1-24,30.1c-1.9,4.7-1.4,8.2,2.2,11c2.7,2.1,7.5,2.4,12.6,2c9.2-0.6,15.7-2.9,18.8-4.3
	c5.8-2.1,11.2-4.9,16.2-8.5c10-7.4,16.1-17.9,15.5-31.8c-0.3-7.7-2.8-15.4-5.8-22.5c0.9-1.3,1.8-2.6,2.7-4
	c15.8-23.1,28.1-48.5,28.1-48.5c1.2,7,2.9,13.8,5,20.6c1.9,6.5,5.7,13.6,9.1,20.5c-14.9,12.1-24.1,26.1-27.3,35.3
	c-5.9,17-1.3,24.7,7.4,26.5c3.9,0.8,9.5-1,13.7-2.8c6.2-2.1,12-5,17.3-8.9c10-7.4,19.7-17.7,19-31.7c-0.2-6.3-2-12.6-4.3-18.7
	c12.6-5.3,28.9-8.2,49.7-5.8c44.5,5.2,53.3,33,51.6,44.6c-1.7,11.6-11,18.1-14.2,20c-3.1,1.9-4.1,2.6-3.8,4.1c0.4,2.1,1.8,2,4.5,1.5
	c3.7-0.6,23.3-9.4,24.2-30.9C513.1,314.4,486.9,284.5,440.7,284.7L440.7,284.7z M97.5,400.4c-14.7,16.1-35.3,22.1-44.2,17
	c-9.5-5.5-5.8-29.2,12.4-46.3c11-10.4,25.3-20,34.7-25.9c2.2-1.3,5.3-3.2,9.1-5.5c0.6-0.4,1-0.6,1-0.6c0.7-0.5,1.5-0.9,2.3-1.4
	C119.4,362.1,113,383.5,97.5,400.4L97.5,400.4z M204.9,327.3c-5.1,12.6-15.9,44.5-22.5,42.9c-5.6-1.4-9-25.8-1.1-49.8
	c4-12.1,12.5-26.5,17.5-32.1c8.1-9,17-11.9,19-8.3C220.7,284.7,208.1,319.5,204.9,327.3L204.9,327.3z M293.7,369.7
	c-2.2,1.1-4.2,1.8-5.1,1.3c-0.7-0.4,0.9-1.9,0.9-1.9s11.1-11.9,15.5-17.4c2.6-3.2,5.5-7,8.7-11.1c0,0.4,0.1,0.8,0.1,1.3
	C313.7,356.2,299.9,365.9,293.7,369.7L293.7,369.7z M362.1,354.1c-1.6-1.1-1.4-4.9,4-16.6c2.1-4.6,6.9-12.2,15.2-19.6
	c1,2.8,1.4,5.7,1.5,8.6C382.7,344.6,369.9,351.3,362.1,354.1L362.1,354.1z"/>
</svg>
