<?xml version="1.0" encoding="utf-8"?>
<!-- Generator: Adobe Illustrator 26.5.0, SVG Export Plug-In . SVG Version: 6.00 Build 0)  -->
<svg version="1.1" id="레이어_1" xmlns="http://www.w3.org/2000/svg" xmlns:xlink="http://www.w3.org/1999/xlink" x="0px"
	 y="0px" viewBox="0 0 512 512" style="enable-background:new 0 0 512 512;" xml:space="preserve">
<style type="text/css">
	.st0{fill-rule:evenodd;clip-rule:evenodd;fill:#38BDF8;}
</style>
<path class="st0" d="M256,103.5c-68.2,0-110.8,33.9-127.9,101.7c25.6-33.9,55.4-46.6,89.5-38.1c19.5,4.8,33.4,18.9,48.7,34.4
	c25.1,25.3,54.1,54.6,117.5,54.6c68.2,0,110.8-33.9,127.8-101.7c-25.6,33.9-55.4,46.6-89.5,38.1c-19.5-4.8-33.4-18.9-48.8-34.4
	C348.4,132.8,319.4,103.5,256,103.5z M128.1,256C60,256,17.3,289.9,0.3,357.7c25.6-33.9,55.4-46.6,89.5-38.1
	c19.5,4.8,33.4,18.9,48.8,34.4c25.1,25.3,54.1,54.6,117.5,54.6c68.2,0,110.8-33.9,127.8-101.7c-25.6,33.9-55.4,46.6-89.5,38.1
	c-19.5-4.8-33.4-18.9-48.7-34.4C220.5,285.3,191.5,256,128.1,256z"/>
</svg>
