<?xml version="1.0" encoding="utf-8"?>
<!-- Generator: Adobe Illustrator 25.4.1, SVG Export Plug-In . SVG Version: 6.00 Build 0)  -->
<svg version="1.1" id="레이어_1" xmlns="http://www.w3.org/2000/svg" xmlns:xlink="http://www.w3.org/1999/xlink" x="0px"
	 y="0px" viewBox="0 0 512 512" style="enable-background:new 0 0 512 512;" xml:space="preserve">
<style type="text/css">
	.st0{fill:none;stroke:#000000;stroke-width:14;stroke-linecap:round;stroke-linejoin:round;stroke-miterlimit:10;}
</style>
<g id="large">
</g>
<g id="medium">
</g>
<g>
	<polygon class="st0" points="323,323 257,76.4 167,166.4 289.6,199.2 199.2,289.6 166.4,167 76.6,256.7 199.4,289.8 199.2,289.9 
		199.9,290.1 199.9,290 	"/>
	<polygon class="st0" points="232.9,413.4 232.9,413.3 142.5,503.9 142.5,504 323.2,323.2 323.2,323.1 	"/>
	<polygon class="st0" points="413.6,232.9 504,142.5 503.8,142.5 413.3,232.9 	"/>
	<polygon class="st0" points="10.2,10.2 133.4,43.2 133.4,43.2 10.2,10.2 76.2,256.7 76.2,256.7 	"/>
	<polygon class="st0" points="256.9,76.3 256.9,76.2 257,76.3 257,76.3 256.9,76.2 256.9,76.2 	"/>
	<polygon class="st0" points="503.8,142.5 503.8,142.5 257,76.3 257,76.3 	"/>
	<polygon class="st0" points="257,76.3 257,76.3 257,76.3 257,76.3 256.9,76.3 257,76.4 	"/>
	<polygon class="st0" points="43.6,133.5 133.5,43.4 133.4,43.2 10.2,10.2 43.3,133.7 43.3,133.7 43.3,133.4 	"/>
	<polygon class="st0" points="166.2,166.4 43.6,133.5 43.3,133.7 76.3,256.7 76.4,256.7 166.4,166.9 	"/>
	<polygon class="st0" points="256.9,76.2 133.4,43.2 133.4,43.2 	"/>
	<polygon class="st0" points="133.7,43.3 133.5,43.4 166.4,166.2 166.8,166.3 256.9,76.2 133.4,43.2 133.4,43.2 	"/>
	<polygon class="st0" points="166.2,166.4 166.4,166.4 166.4,166.2 166.2,166.2 	"/>
	<polygon class="st0" points="166.7,166.4 166.8,166.5 166.4,166.9 166.4,167 167,166.4 166.8,166.3 	"/>
	<polygon class="st0" points="166.5,166.7 166.7,166.4 166.4,166.4 	"/>
	<polygon class="st0" points="76.3,257 76.2,256.7 76,256.6 109,380.1 109.2,379.8 	"/>
	<polygon class="st0" points="76.6,256.7 76.4,256.7 76.4,256.9 76.3,256.7 76.2,256.7 76.3,257 76.3,257 	"/>
	<polygon class="st0" points="76.3,257 109.2,379.8 199.2,289.9 	"/>
	<rect x="76.3" y="257" class="st0" width="0" height="0.1"/>
	<polygon class="st0" points="323.1,323.1 323.1,323.1 323,323.1 323,323.1 199.9,290.1 232.9,413.3 232.9,413.3 232.9,413.3 
		232.9,413.3 	"/>
	<polygon class="st0" points="323,323.1 323.1,323.1 323.1,323.1 323.1,323 323,323 	"/>
	<polygon class="st0" points="109.5,380.3 142.6,503.6 232.9,413.3 232.9,413.3 	"/>
	<polygon class="st0" points="290,199.8 380.1,109.7 380.1,109.6 380.2,109.6 380.4,109.5 257,76.3 257,76.3 	"/>
	<polygon class="st0" points="323.2,323.2 323.2,323.3 413.6,232.9 413.6,232.9 	"/>
	<polygon class="st0" points="413.2,233 413.1,232.8 290.1,199.9 323.1,323 323.2,323 413.3,232.9 413.3,232.9 	"/>
	<polygon class="st0" points="323.1,323.1 323.2,323.1 323.1,323.1 323.2,323.1 323.3,323 323.2,323 	"/>
	<polygon class="st0" points="413.1,232.8 413.3,232.9 503.5,142.6 380.2,109.6 380.1,109.7 	"/>
</g>
</svg>
