<?xml version="1.0" encoding="utf-8"?>
<!-- Generator: Adobe Illustrator 26.5.0, SVG Export Plug-In . SVG Version: 6.00 Build 0)  -->
<svg version="1.1" id="레이어_1" xmlns="http://www.w3.org/2000/svg" xmlns:xlink="http://www.w3.org/1999/xlink" x="0px"
	 y="0px" viewBox="0 0 512 512" style="enable-background:new 0 0 512 512;" xml:space="preserve">
<style type="text/css">
	.st0{fill:#255CAD;}
</style>
<path class="st0" d="M0,0v512h512V0H0z M290.1,283.2h-59.4v188.7h-48.1V283.2h-59.4v-48.1h167V283.2L290.1,283.2z M392.5,471.9
	L392.5,471.9L392.5,471.9L392.5,471.9c-44.7,0-73.6-21.3-87.7-49.1l39.2-22.6c10.3,16.8,23.8,29.3,47.4,29.3
	c19.9,0,32.7-9.9,32.7-23.8c0-16.5-13-22.3-35.1-32l-12-5.1c-34.7-14.7-57.7-33.4-57.7-72.6c0-36.1,27.5-63.5,70.4-63.5
	c30.6,0,52.6,10.6,68.3,38.5l-37.5,24c-8.2-14.7-17.1-20.6-31-20.6c-14.1,0-23,8.9-23,20.6c0,14.4,8.9,20.2,29.6,29.3l12,5.1
	c40.9,17.5,63.9,35.4,63.9,75.7C472.1,448.1,438.1,471.9,392.5,471.9z"/>
</svg>
