<?xml version="1.0" encoding="utf-8"?>
<!-- Generator: Adobe Illustrator 27.3.1, SVG Export Plug-In . SVG Version: 6.00 Build 0)  -->
<svg version="1.1" id="레이어_1" xmlns="http://www.w3.org/2000/svg" xmlns:xlink="http://www.w3.org/1999/xlink" x="0px"
	 y="0px" viewBox="0 0 512 512" style="enable-background:new 0 0 512 512;" xml:space="preserve">
<style type="text/css">
	.st0{fill:#040000;}
</style>
<g id="Xo7xQB.tif">
</g>
<path class="st0" d="M255.4,227.4c-19.8,0-34,12.9-34,32.2s16,32.2,35.8,32.2c11.9,0,22.5-4.7,29-12.7l-13.7-7.9
	c-3.6,4-9.1,6.3-15.3,6.3c-8.6,0-15.9-4.5-18.6-11.6h50.1c0.4-2,0.6-4.1,0.6-6.3C289.4,240.3,275.2,227.4,255.4,227.4L255.4,227.4z
	 M238.5,253.3c2.2-7.1,8.4-11.6,16.9-11.6c8.6,0,14.7,4.5,16.9,11.6H238.5z M448.1,227.4c-19.8,0-34,12.9-34,32.2s16,32.2,35.8,32.2
	c11.9,0,22.5-4.7,29-12.7l-13.7-7.9c-3.6,4-9.1,6.3-15.3,6.3c-8.6,0-15.9-4.5-18.6-11.6h50.1c0.4-2,0.6-4.1,0.6-6.3
	C482.2,240.3,467.9,227.4,448.1,227.4L448.1,227.4z M431.2,253.3c2.2-7.1,8.4-11.6,16.9-11.6c8.6,0,14.7,4.5,16.9,11.6H431.2
	L431.2,253.3z M361.4,259.6c0,10.7,7,17.9,17.9,17.9c7.4,0,12.9-3.3,15.7-8.8l13.7,7.9c-5.7,9.5-16.4,15.2-29.5,15.2
	c-19.8,0-34-12.9-34-32.2s14.2-32.2,34-32.2c13.1,0,23.8,5.7,29.5,15.2l-13.7,7.9c-2.8-5.5-8.4-8.8-15.7-8.8
	C368.4,241.7,361.4,248.8,361.4,259.6z M509,207.7V290h-16.1v-82.3H509z M69.1,198.7l66.1,114.5H3L69.1,198.7z M234.5,207.7
	l-49.6,85.9l-49.6-85.9h18.6l31,53.7l31-53.7H234.5z M339.9,229.2v17.3c-1.8-0.5-3.7-0.9-5.7-0.9c-10.4,0-17.9,7.2-17.9,17.9V290
	h-16.1v-60.9h16.1v16.5C316.3,236.5,326.9,229.2,339.9,229.2z"/>
</svg>
